<svg width="219" height="100" viewBox="0 0 219 100" fill="none" xmlns="http://www.w3.org/2000/svg">
<rect width="219" height="100" rx="10" fill="url(#paint0_linear_1395_2530)"/>
<path d="M57.5 45.425V38.575L51.5 35.1V41.95L57.5 45.425ZM59.5 45.425L65.5 41.95V35.1L59.5 38.575V45.425ZM57.5 47.725L50.5 43.7C50.1833 43.5167 49.9375 43.275 49.7625 42.975C49.5875 42.675 49.5 42.3417 49.5 41.975V34.025C49.5 33.6583 49.5875 33.325 49.7625 33.025C49.9375 32.725 50.1833 32.4833 50.5 32.3L57.5 28.275C57.8167 28.0917 58.15 28 58.5 28C58.85 28 59.1833 28.0917 59.5 28.275L66.5 32.3C66.8167 32.4833 67.0625 32.725 67.2375 33.025C67.4125 33.325 67.5 33.6583 67.5 34.025V41.975C67.5 42.3417 67.4125 42.675 67.2375 42.975C67.0625 43.275 66.8167 43.5167 66.5 43.7L59.5 47.725C59.1833 47.9083 58.85 48 58.5 48C58.15 48 57.8167 47.9083 57.5 47.725ZM62.5 34.525L64.425 33.425L58.5 30L56.55 31.125L62.5 34.525ZM58.5 36.85L60.45 35.725L54.525 32.3L52.575 33.425L58.5 36.85Z" fill="white"/>
<path d="M85.6314 36.2898H83.5064C83.4458 35.9413 83.334 35.6326 83.1712 35.3636C83.0083 35.0909 82.8056 34.8598 82.5632 34.6705C82.3208 34.4811 82.0443 34.339 81.7337 34.2443C81.4268 34.1458 81.0954 34.0966 80.7393 34.0966C80.1068 34.0966 79.5462 34.2557 79.0575 34.5739C78.5689 34.8883 78.1863 35.3504 77.9098 35.9602C77.6333 36.5663 77.495 37.3068 77.495 38.1818C77.495 39.072 77.6333 39.822 77.9098 40.4318C78.1901 41.0379 78.5727 41.4962 79.0575 41.8068C79.5462 42.1136 80.1049 42.267 80.7337 42.267C81.0821 42.267 81.4079 42.2216 81.7109 42.1307C82.0178 42.036 82.2924 41.8977 82.5348 41.7159C82.781 41.5341 82.9875 41.3106 83.1541 41.0455C83.3246 40.7803 83.442 40.4773 83.5064 40.1364L85.6314 40.1477C85.5518 40.7008 85.3795 41.2197 85.1143 41.7045C84.853 42.1894 84.5102 42.6174 84.0859 42.9886C83.6617 43.3561 83.1655 43.6439 82.5973 43.8523C82.0291 44.0568 81.3984 44.1591 80.7053 44.1591C79.6825 44.1591 78.7696 43.9223 77.9666 43.4489C77.1636 42.9754 76.531 42.2917 76.0689 41.3977C75.6068 40.5038 75.3757 39.4318 75.3757 38.1818C75.3757 36.928 75.6087 35.8561 76.0746 34.9659C76.5405 34.072 77.175 33.3883 77.978 32.9148C78.781 32.4413 79.6901 32.2045 80.7053 32.2045C81.353 32.2045 81.9553 32.2955 82.5121 32.4773C83.0689 32.6591 83.5651 32.9261 84.0007 33.2784C84.4363 33.6269 84.7943 34.0549 85.0746 34.5625C85.3587 35.0663 85.5443 35.642 85.6314 36.2898ZM89.5277 38.8864V44H87.4709V32.3636H89.4822V36.7557H89.5845C89.7891 36.2633 90.1054 35.875 90.5334 35.5909C90.9652 35.303 91.5144 35.1591 92.1811 35.1591C92.7872 35.1591 93.3156 35.286 93.7663 35.5398C94.2171 35.7936 94.5656 36.1648 94.8118 36.6534C95.0618 37.142 95.1868 37.7386 95.1868 38.4432V44H93.13V38.7614C93.13 38.1742 92.9785 37.7178 92.6754 37.392C92.3762 37.0625 91.9557 36.8977 91.4141 36.8977C91.0504 36.8977 90.7247 36.9773 90.4368 37.1364C90.1527 37.2917 89.9292 37.517 89.7663 37.8125C89.6072 38.108 89.5277 38.4659 89.5277 38.8864ZM101.147 44.1705C100.272 44.1705 99.5163 43.9886 98.88 43.625C98.2474 43.2576 97.7607 42.7386 97.4197 42.0682C97.0788 41.3939 96.9084 40.6004 96.9084 39.6875C96.9084 38.7898 97.0788 38.0019 97.4197 37.3239C97.7644 36.642 98.2455 36.1117 98.8629 35.733C99.4804 35.3504 100.206 35.1591 101.039 35.1591C101.577 35.1591 102.085 35.2462 102.562 35.4205C103.043 35.5909 103.467 35.8561 103.835 36.2159C104.206 36.5758 104.497 37.0341 104.71 37.5909C104.922 38.1439 105.028 38.803 105.028 39.5682V40.1989H97.8743V38.8125H103.056C103.052 38.4186 102.967 38.0682 102.8 37.7614C102.634 37.4508 102.401 37.2064 102.102 37.0284C101.806 36.8504 101.461 36.7614 101.067 36.7614C100.647 36.7614 100.278 36.8636 99.9595 37.0682C99.6413 37.2689 99.3932 37.5341 99.2152 37.8636C99.041 38.1894 98.9519 38.5473 98.9482 38.9375V40.1477C98.9482 40.6553 99.041 41.0909 99.2266 41.4545C99.4122 41.8144 99.6716 42.0909 100.005 42.2841C100.338 42.4735 100.728 42.5682 101.175 42.5682C101.475 42.5682 101.746 42.5265 101.988 42.4432C102.23 42.3561 102.441 42.2292 102.619 42.0625C102.797 41.8958 102.931 41.6894 103.022 41.4432L104.942 41.6591C104.821 42.1667 104.59 42.6098 104.249 42.9886C103.912 43.3636 103.48 43.6553 102.954 43.8636C102.427 44.0682 101.825 44.1705 101.147 44.1705ZM110.575 44.1705C109.703 44.1705 108.955 43.9792 108.33 43.5966C107.709 43.214 107.23 42.6856 106.893 42.0114C106.559 41.3333 106.393 40.553 106.393 39.6705C106.393 38.7841 106.563 38.0019 106.904 37.3239C107.245 36.642 107.726 36.1117 108.347 35.733C108.972 35.3504 109.711 35.1591 110.563 35.1591C111.272 35.1591 111.898 35.2898 112.444 35.5511C112.993 35.8087 113.431 36.1742 113.756 36.6477C114.082 37.1174 114.268 37.6667 114.313 38.2955H112.347C112.268 37.875 112.078 37.5246 111.779 37.2443C111.484 36.9602 111.088 36.8182 110.592 36.8182C110.171 36.8182 109.802 36.9318 109.484 37.1591C109.165 37.3826 108.917 37.7045 108.739 38.125C108.565 38.5455 108.478 39.0492 108.478 39.6364C108.478 40.2311 108.565 40.7424 108.739 41.1705C108.914 41.5947 109.158 41.9223 109.472 42.1534C109.79 42.3807 110.164 42.4943 110.592 42.4943C110.895 42.4943 111.165 42.4375 111.404 42.3239C111.647 42.2064 111.849 42.0379 112.012 41.8182C112.175 41.5985 112.287 41.3314 112.347 41.017H114.313C114.264 41.6345 114.082 42.1818 113.768 42.6591C113.453 43.1326 113.025 43.5038 112.484 43.7727C111.942 44.0379 111.306 44.1705 110.575 44.1705ZM117.877 41.2614L117.871 38.7784H118.201L121.337 35.2727H123.741L119.883 39.5682H119.457L117.877 41.2614ZM116.002 44V32.3636H118.059V44H116.002ZM121.479 44L118.638 40.0284L120.025 38.5795L123.94 44H121.479ZM135.495 35.5625C135.442 35.0663 135.219 34.6799 134.825 34.4034C134.434 34.1269 133.927 33.9886 133.302 33.9886C132.862 33.9886 132.486 34.0549 132.171 34.1875C131.857 34.3201 131.616 34.5 131.45 34.7273C131.283 34.9545 131.198 35.214 131.194 35.5057C131.194 35.7481 131.249 35.9583 131.359 36.1364C131.472 36.3144 131.626 36.4659 131.819 36.5909C132.012 36.7121 132.226 36.8144 132.461 36.8977C132.696 36.9811 132.933 37.0511 133.171 37.108L134.262 37.3807C134.701 37.483 135.124 37.6212 135.529 37.7955C135.938 37.9697 136.304 38.1894 136.626 38.4545C136.951 38.7197 137.209 39.0398 137.398 39.4148C137.588 39.7898 137.683 40.2292 137.683 40.733C137.683 41.4148 137.508 42.0152 137.16 42.5341C136.811 43.0492 136.308 43.4527 135.648 43.7443C134.993 44.0322 134.2 44.1761 133.268 44.1761C132.362 44.1761 131.576 44.036 130.91 43.7557C130.247 43.4754 129.728 43.0663 129.353 42.5284C128.982 41.9905 128.781 41.3352 128.751 40.5625H130.825C130.855 40.9678 130.98 41.3049 131.2 41.5739C131.419 41.8428 131.705 42.0436 132.058 42.1761C132.414 42.3087 132.811 42.375 133.251 42.375C133.709 42.375 134.111 42.3068 134.455 42.1705C134.804 42.0303 135.076 41.8371 135.273 41.5909C135.47 41.3409 135.571 41.0492 135.575 40.7159C135.571 40.4129 135.482 40.1629 135.308 39.9659C135.133 39.7652 134.889 39.5985 134.575 39.4659C134.264 39.3295 133.9 39.2083 133.484 39.1023L132.16 38.7614C131.201 38.5152 130.444 38.142 129.887 37.642C129.334 37.1383 129.058 36.4697 129.058 35.6364C129.058 34.9508 129.243 34.3504 129.614 33.8352C129.989 33.3201 130.499 32.9205 131.143 32.6364C131.787 32.3485 132.516 32.2045 133.33 32.2045C134.156 32.2045 134.879 32.3485 135.501 32.6364C136.126 32.9205 136.616 33.3163 136.972 33.8239C137.328 34.3277 137.512 34.9072 137.523 35.5625H135.495ZM143.829 35.2727V36.8636H138.812V35.2727H143.829ZM140.05 33.1818H142.107V41.375C142.107 41.6515 142.149 41.8636 142.232 42.0114C142.319 42.1553 142.433 42.2538 142.573 42.3068C142.713 42.3598 142.869 42.3864 143.039 42.3864C143.168 42.3864 143.285 42.3769 143.391 42.358C143.501 42.339 143.585 42.322 143.641 42.3068L143.988 43.9148C143.878 43.9527 143.721 43.9943 143.516 44.0398C143.316 44.0852 143.069 44.1117 142.778 44.1193C142.263 44.1345 141.799 44.0568 141.386 43.8864C140.973 43.7121 140.645 43.4432 140.403 43.0795C140.164 42.7159 140.047 42.2614 140.05 41.7159V33.1818ZM149.262 44.1705C148.41 44.1705 147.671 43.983 147.046 43.608C146.421 43.233 145.936 42.7083 145.592 42.0341C145.251 41.3598 145.08 40.572 145.08 39.6705C145.08 38.7689 145.251 37.9792 145.592 37.3011C145.936 36.6231 146.421 36.0966 147.046 35.7216C147.671 35.3466 148.41 35.1591 149.262 35.1591C150.114 35.1591 150.853 35.3466 151.478 35.7216C152.103 36.0966 152.586 36.6231 152.927 37.3011C153.272 37.9792 153.444 38.7689 153.444 39.6705C153.444 40.572 153.272 41.3598 152.927 42.0341C152.586 42.7083 152.103 43.233 151.478 43.608C150.853 43.983 150.114 44.1705 149.262 44.1705ZM149.273 42.5227C149.736 42.5227 150.122 42.3958 150.433 42.142C150.743 41.8845 150.974 41.5398 151.126 41.108C151.281 40.6761 151.359 40.1951 151.359 39.6648C151.359 39.1307 151.281 38.6477 151.126 38.2159C150.974 37.7803 150.743 37.4337 150.433 37.1761C150.122 36.9186 149.736 36.7898 149.273 36.7898C148.8 36.7898 148.406 36.9186 148.092 37.1761C147.781 37.4337 147.548 37.7803 147.393 38.2159C147.241 38.6477 147.165 39.1307 147.165 39.6648C147.165 40.1951 147.241 40.6761 147.393 41.108C147.548 41.5398 147.781 41.8845 148.092 42.142C148.406 42.3958 148.8 42.5227 149.273 42.5227ZM158.996 44.1705C158.125 44.1705 157.377 43.9792 156.752 43.5966C156.131 43.214 155.652 42.6856 155.315 42.0114C154.981 41.3333 154.815 40.553 154.815 39.6705C154.815 38.7841 154.985 38.0019 155.326 37.3239C155.667 36.642 156.148 36.1117 156.769 35.733C157.394 35.3504 158.133 35.1591 158.985 35.1591C159.693 35.1591 160.32 35.2898 160.866 35.5511C161.415 35.8087 161.853 36.1742 162.178 36.6477C162.504 37.1174 162.69 37.6667 162.735 38.2955H160.769C160.69 37.875 160.5 37.5246 160.201 37.2443C159.906 36.9602 159.51 36.8182 159.013 36.8182C158.593 36.8182 158.224 36.9318 157.906 37.1591C157.587 37.3826 157.339 37.7045 157.161 38.125C156.987 38.5455 156.9 39.0492 156.9 39.6364C156.9 40.2311 156.987 40.7424 157.161 41.1705C157.335 41.5947 157.58 41.9223 157.894 42.1534C158.212 42.3807 158.585 42.4943 159.013 42.4943C159.317 42.4943 159.587 42.4375 159.826 42.3239C160.068 42.2064 160.271 42.0379 160.434 41.8182C160.597 41.5985 160.709 41.3314 160.769 41.017H162.735C162.686 41.6345 162.504 42.1818 162.19 42.6591C161.875 43.1326 161.447 43.5038 160.906 43.7727C160.364 44.0379 159.728 44.1705 158.996 44.1705ZM166.299 41.2614L166.293 38.7784H166.623L169.759 35.2727H172.163L168.305 39.5682H167.879L166.299 41.2614ZM164.424 44V32.3636H166.481V44H164.424ZM169.901 44L167.06 40.0284L168.447 38.5795L172.362 44H169.901Z" fill="white"/>
<path d="M47.8897 61.2727L50.161 68.142H50.2505L52.5176 61.2727H54.2562L51.1795 70H49.2278L46.1554 61.2727H47.8897ZM55.3375 70V63.4545H56.8801V70H55.3375ZM56.1131 62.5256C55.8688 62.5256 55.6586 62.4446 55.4824 62.2827C55.3063 62.1179 55.2182 61.9205 55.2182 61.6903C55.2182 61.4574 55.3063 61.2599 55.4824 61.098C55.6586 60.9332 55.8688 60.8509 56.1131 60.8509C56.3603 60.8509 56.5705 60.9332 56.7438 61.098C56.9199 61.2599 57.008 61.4574 57.008 61.6903C57.008 61.9205 56.9199 62.1179 56.7438 62.2827C56.5705 62.4446 56.3603 62.5256 56.1131 62.5256ZM61.3642 70.1278C60.7079 70.1278 60.1412 69.9915 59.6639 69.7188C59.1895 69.4432 58.8244 69.054 58.5687 68.5511C58.313 68.0455 58.1852 67.4503 58.1852 66.7656C58.1852 66.0923 58.313 65.5014 58.5687 64.9929C58.8272 64.4815 59.188 64.0838 59.6511 63.7997C60.1142 63.5128 60.6582 63.3693 61.2832 63.3693C61.6866 63.3693 62.0673 63.4347 62.4252 63.5653C62.786 63.6932 63.1042 63.892 63.3798 64.1619C63.6582 64.4318 63.877 64.7756 64.036 65.1932C64.1951 65.608 64.2747 66.1023 64.2747 66.6761V67.1491H58.9096V66.1094H62.796C62.7931 65.8139 62.7292 65.5511 62.6042 65.321C62.4792 65.0881 62.3045 64.9048 62.0801 64.7713C61.8585 64.6378 61.6 64.571 61.3045 64.571C60.9892 64.571 60.7122 64.6477 60.4735 64.8011C60.2349 64.9517 60.0488 65.1506 59.9153 65.3977C59.7846 65.642 59.7179 65.9105 59.715 66.2031V67.1108C59.715 67.4915 59.7846 67.8182 59.9238 68.0909C60.063 68.3608 60.2576 68.5682 60.5076 68.7131C60.7576 68.8551 61.0502 68.9261 61.3855 68.9261C61.6099 68.9261 61.813 68.8949 61.9949 68.8324C62.1767 68.767 62.3343 68.6719 62.4679 68.5469C62.6014 68.4219 62.7022 68.267 62.7704 68.0824L64.2108 68.2443C64.1199 68.625 63.9466 68.9574 63.6909 69.2415C63.438 69.5227 63.1142 69.7415 62.7193 69.8977C62.3244 70.0511 61.8727 70.1278 61.3642 70.1278ZM66.8954 70L65.046 63.4545H66.6184L67.769 68.0568H67.8287L69.0048 63.4545H70.5602L71.7363 68.0312H71.8002L72.9338 63.4545H74.5105L72.6568 70H71.0502L69.823 65.5767H69.7335L68.5062 70H66.8954ZM80.2132 61.2727V70H78.6323V61.2727H80.2132ZM83.3997 66.1648V70H81.8571V63.4545H83.3315V64.5668H83.4082C83.5588 64.2003 83.7988 63.9091 84.1284 63.6932C84.4608 63.4773 84.8713 63.3693 85.3599 63.3693C85.8116 63.3693 86.2051 63.4659 86.5403 63.6591C86.8784 63.8523 87.1397 64.1321 87.3244 64.4986C87.5119 64.8651 87.6042 65.3097 87.6014 65.8324V70H86.0588V66.071C86.0588 65.6335 85.9451 65.2912 85.7179 65.044C85.4934 64.7969 85.1824 64.6733 84.7846 64.6733C84.5147 64.6733 84.2747 64.733 84.0645 64.8523C83.8571 64.9687 83.6937 65.1378 83.5744 65.3594C83.4579 65.581 83.3997 65.8494 83.3997 66.1648ZM94.7818 63.4545L92.4508 70H90.7463L88.4153 63.4545H90.0602L91.5645 68.3168H91.6326L93.1412 63.4545H94.7818ZM98.5243 70.1278C97.8681 70.1278 97.3013 69.9915 96.824 69.7188C96.3496 69.4432 95.9846 69.054 95.7289 68.5511C95.4732 68.0455 95.3453 67.4503 95.3453 66.7656C95.3453 66.0923 95.4732 65.5014 95.7289 64.9929C95.9874 64.4815 96.3482 64.0838 96.8113 63.7997C97.2743 63.5128 97.8184 63.3693 98.4434 63.3693C98.8468 63.3693 99.2275 63.4347 99.5854 63.5653C99.9462 63.6932 100.264 63.892 100.54 64.1619C100.818 64.4318 101.037 64.7756 101.196 65.1932C101.355 65.608 101.435 66.1023 101.435 66.6761V67.1491H96.0698V66.1094H99.9561C99.9533 65.8139 99.8894 65.5511 99.7644 65.321C99.6394 65.0881 99.4647 64.9048 99.2402 64.7713C99.0186 64.6378 98.7601 64.571 98.4647 64.571C98.1493 64.571 97.8723 64.6477 97.6337 64.8011C97.3951 64.9517 97.209 65.1506 97.0755 65.3977C96.9448 65.642 96.878 65.9105 96.8752 66.2031V67.1108C96.8752 67.4915 96.9448 67.8182 97.084 68.0909C97.2232 68.3608 97.4178 68.5682 97.6678 68.7131C97.9178 68.8551 98.2104 68.9261 98.5456 68.9261C98.7701 68.9261 98.9732 68.8949 99.155 68.8324C99.3368 68.767 99.4945 68.6719 99.628 68.5469C99.7615 68.4219 99.8624 68.267 99.9306 68.0824L101.371 68.2443C101.28 68.625 101.107 68.9574 100.851 69.2415C100.598 69.5227 100.274 69.7415 99.8794 69.8977C99.4846 70.0511 99.0328 70.1278 98.5243 70.1278ZM104.282 66.1648V70H102.74V63.4545H104.214V64.5668H104.291C104.442 64.2003 104.682 63.9091 105.011 63.6932C105.344 63.4773 105.754 63.3693 106.243 63.3693C106.694 63.3693 107.088 63.4659 107.423 63.6591C107.761 63.8523 108.023 64.1321 108.207 64.4986C108.395 64.8651 108.487 65.3097 108.484 65.8324V70H106.942V66.071C106.942 65.6335 106.828 65.2912 106.601 65.044C106.376 64.7969 106.065 64.6733 105.667 64.6733C105.398 64.6733 105.157 64.733 104.947 64.8523C104.74 64.9687 104.577 65.1378 104.457 65.3594C104.341 65.581 104.282 65.8494 104.282 66.1648ZM113.321 63.4545V64.6477H109.558V63.4545H113.321ZM110.487 61.8864H112.03V68.0312C112.03 68.2386 112.061 68.3977 112.123 68.5085C112.189 68.6165 112.274 68.6903 112.379 68.7301C112.484 68.7699 112.601 68.7898 112.729 68.7898C112.825 68.7898 112.913 68.7827 112.993 68.7685C113.075 68.7543 113.138 68.7415 113.18 68.7301L113.44 69.9361C113.358 69.9645 113.24 69.9957 113.086 70.0298C112.936 70.0639 112.751 70.0838 112.532 70.0895C112.146 70.1009 111.798 70.0426 111.488 69.9148C111.179 69.7841 110.933 69.5824 110.751 69.3097C110.572 69.0369 110.484 68.696 110.487 68.2869V61.8864ZM117.396 70.1278C116.757 70.1278 116.203 69.9872 115.734 69.706C115.265 69.4247 114.901 69.0312 114.643 68.5256C114.387 68.0199 114.259 67.429 114.259 66.7528C114.259 66.0767 114.387 65.4844 114.643 64.9759C114.901 64.4673 115.265 64.0724 115.734 63.7912C116.203 63.5099 116.757 63.3693 117.396 63.3693C118.035 63.3693 118.589 63.5099 119.058 63.7912C119.526 64.0724 119.889 64.4673 120.144 64.9759C120.403 65.4844 120.532 66.0767 120.532 66.7528C120.532 67.429 120.403 68.0199 120.144 68.5256C119.889 69.0312 119.526 69.4247 119.058 69.706C118.589 69.9872 118.035 70.1278 117.396 70.1278ZM117.404 68.892C117.751 68.892 118.041 68.7969 118.274 68.6065C118.507 68.4134 118.68 68.1548 118.794 67.831C118.91 67.5071 118.968 67.1463 118.968 66.7486C118.968 66.348 118.91 65.9858 118.794 65.6619C118.68 65.3352 118.507 65.0753 118.274 64.8821C118.041 64.6889 117.751 64.5923 117.404 64.5923C117.049 64.5923 116.754 64.6889 116.518 64.8821C116.285 65.0753 116.11 65.3352 115.994 65.6619C115.88 65.9858 115.823 66.348 115.823 66.7486C115.823 67.1463 115.88 67.5071 115.994 67.831C116.11 68.1548 116.285 68.4134 116.518 68.6065C116.754 68.7969 117.049 68.892 117.404 68.892ZM121.841 70V63.4545H123.337V64.5455H123.405C123.525 64.1676 123.729 63.8764 124.019 63.6719C124.312 63.4645 124.645 63.3608 125.02 63.3608C125.106 63.3608 125.201 63.3651 125.306 63.3736C125.414 63.3793 125.503 63.3892 125.574 63.4034V64.8224C125.509 64.7997 125.405 64.7798 125.263 64.7628C125.124 64.7429 124.989 64.733 124.858 64.733C124.577 64.733 124.324 64.794 124.1 64.9162C123.878 65.0355 123.704 65.2017 123.576 65.4148C123.448 65.6278 123.384 65.8736 123.384 66.152V70H121.841ZM127.757 72.4545C127.547 72.4545 127.352 72.4375 127.173 72.4034C126.997 72.3722 126.857 72.3352 126.752 72.2926L127.11 71.0909C127.334 71.1563 127.534 71.1875 127.71 71.1847C127.887 71.1818 128.041 71.1264 128.175 71.0185C128.311 70.9134 128.426 70.7372 128.52 70.4901L128.652 70.1364L126.279 63.4545H127.915L129.423 68.3977H129.492L131.004 63.4545H132.645L130.024 70.7926C129.902 71.1392 129.74 71.4361 129.539 71.6832C129.337 71.9332 129.09 72.1236 128.797 72.2543C128.507 72.3878 128.161 72.4545 127.757 72.4545ZM136.757 70V61.2727H138.338V68.6747H142.182V70H136.757ZM146.384 70.1278C145.727 70.1278 145.161 69.9915 144.683 69.7188C144.209 69.4432 143.844 69.054 143.588 68.5511C143.333 68.0455 143.205 67.4503 143.205 66.7656C143.205 66.0923 143.333 65.5014 143.588 64.9929C143.847 64.4815 144.208 64.0838 144.671 63.7997C145.134 63.5128 145.678 63.3693 146.303 63.3693C146.706 63.3693 147.087 63.4347 147.445 63.5653C147.806 63.6932 148.124 63.892 148.399 64.1619C148.678 64.4318 148.896 64.7756 149.056 65.1932C149.215 65.608 149.294 66.1023 149.294 66.6761V67.1491H143.929V66.1094H147.816C147.813 65.8139 147.749 65.5511 147.624 65.321C147.499 65.0881 147.324 64.9048 147.1 64.7713C146.878 64.6378 146.619 64.571 146.324 64.571C146.009 64.571 145.732 64.6477 145.493 64.8011C145.254 64.9517 145.068 65.1506 144.935 65.3977C144.804 65.642 144.737 65.9105 144.735 66.2031V67.1108C144.735 67.4915 144.804 67.8182 144.943 68.0909C145.083 68.3608 145.277 68.5682 145.527 68.7131C145.777 68.8551 146.07 68.9261 146.405 68.9261C146.629 68.9261 146.833 68.8949 147.014 68.8324C147.196 68.767 147.354 68.6719 147.487 68.5469C147.621 68.4219 147.722 68.267 147.79 68.0824L149.23 68.2443C149.139 68.625 148.966 68.9574 148.71 69.2415C148.458 69.5227 148.134 69.7415 147.739 69.8977C147.344 70.0511 146.892 70.1278 146.384 70.1278ZM156.258 63.4545L153.927 70H152.223L149.892 63.4545H151.537L153.041 68.3168H153.109L154.618 63.4545H156.258ZM160.001 70.1278C159.345 70.1278 158.778 69.9915 158.301 69.7188C157.826 69.4432 157.461 69.054 157.205 68.5511C156.95 68.0455 156.822 67.4503 156.822 66.7656C156.822 66.0923 156.95 65.5014 157.205 64.9929C157.464 64.4815 157.825 64.0838 158.288 63.7997C158.751 63.5128 159.295 63.3693 159.92 63.3693C160.323 63.3693 160.704 63.4347 161.062 63.5653C161.423 63.6932 161.741 63.892 162.017 64.1619C162.295 64.4318 162.514 64.7756 162.673 65.1932C162.832 65.608 162.911 66.1023 162.911 66.6761V67.1491H157.546V66.1094H161.433C161.43 65.8139 161.366 65.5511 161.241 65.321C161.116 65.0881 160.941 64.9048 160.717 64.7713C160.495 64.6378 160.237 64.571 159.941 64.571C159.626 64.571 159.349 64.6477 159.11 64.8011C158.872 64.9517 158.686 65.1506 158.552 65.3977C158.421 65.642 158.355 65.9105 158.352 66.2031V67.1108C158.352 67.4915 158.421 67.8182 158.561 68.0909C158.7 68.3608 158.894 68.5682 159.144 68.7131C159.394 68.8551 159.687 68.9261 160.022 68.9261C160.247 68.9261 160.45 68.8949 160.632 68.8324C160.813 68.767 160.971 68.6719 161.105 68.5469C161.238 68.4219 161.339 68.267 161.407 68.0824L162.847 68.2443C162.757 68.625 162.583 68.9574 162.328 69.2415C162.075 69.5227 161.751 69.7415 161.356 69.8977C160.961 70.0511 160.509 70.1278 160.001 70.1278ZM165.759 61.2727V70H164.216V61.2727H165.759ZM172.519 65.1847L171.112 65.3381C171.073 65.196 171.003 65.0625 170.904 64.9375C170.807 64.8125 170.676 64.7116 170.512 64.6349C170.347 64.5582 170.145 64.5199 169.906 64.5199C169.585 64.5199 169.316 64.5895 169.097 64.7287C168.881 64.8679 168.774 65.0483 168.777 65.2699C168.774 65.4602 168.844 65.6151 168.986 65.7344C169.131 65.8537 169.369 65.9517 169.702 66.0284L170.818 66.267C171.438 66.4006 171.898 66.6122 172.199 66.902C172.503 67.1918 172.656 67.571 172.659 68.0398C172.656 68.4517 172.536 68.8153 172.297 69.1307C172.061 69.4432 171.733 69.6875 171.313 69.8636C170.892 70.0398 170.409 70.1278 169.864 70.1278C169.063 70.1278 168.418 69.9602 167.929 69.625C167.441 69.2869 167.149 68.8168 167.056 68.2145L168.56 68.0696C168.628 68.3651 168.773 68.5881 168.994 68.7386C169.216 68.8892 169.504 68.9645 169.86 68.9645C170.226 68.9645 170.52 68.8892 170.742 68.7386C170.966 68.5881 171.078 68.402 171.078 68.1804C171.078 67.9929 171.006 67.8381 170.861 67.7159C170.719 67.5937 170.497 67.5 170.196 67.4347L169.08 67.2003C168.452 67.0696 167.987 66.8494 167.686 66.5398C167.385 66.2273 167.236 65.8324 167.239 65.3551C167.236 64.9517 167.345 64.6023 167.567 64.3068C167.791 64.0085 168.102 63.7784 168.5 63.6165C168.901 63.4517 169.362 63.3693 169.885 63.3693C170.652 63.3693 171.256 63.5327 171.696 63.8594C172.139 64.1861 172.414 64.6278 172.519 65.1847Z" fill="white"/>
<defs>
<linearGradient id="paint0_linear_1395_2530" x1="16.5" y1="-10.5" x2="219" y2="116.5" gradientUnits="userSpaceOnUse">
<stop offset="0.293392" stop-color="#215AC8"/>
<stop offset="0.424747" stop-color="#2F6DE4"/>
<stop offset="0.709173" stop-color="#3D80FF"/>
</linearGradient>
</defs>
</svg>
