<svg width="219" height="100" viewBox="0 0 219 100" fill="none" xmlns="http://www.w3.org/2000/svg">
<rect width="219" height="100" rx="10" fill="url(#paint0_radial_1395_2539)"/>
<g clip-path="url(#clip0_1395_2539)">
<path d="M60.5 33.28V31C60.5 29.9 59.6 29 58.5 29H44.5C43.39 29 42.5 29.9 42.5 31V45C42.5 46.1 43.39 47 44.5 47H58.5C59.6 47 60.5 46.1 60.5 45V42.72C61.09 42.37 61.5 41.74 61.5 41V35C61.5 34.26 61.09 33.63 60.5 33.28ZM59.5 35V41H52.5V35H59.5ZM44.5 45V31H58.5V33H52.5C51.4 33 50.5 33.9 50.5 35V41C50.5 42.1 51.4 43 52.5 43H58.5V45H44.5Z" fill="white"/>
<path d="M55.5 39.5C56.3284 39.5 57 38.8284 57 38C57 37.1716 56.3284 36.5 55.5 36.5C54.6716 36.5 54 37.1716 54 38C54 38.8284 54.6716 39.5 55.5 39.5Z" fill="white"/>
</g>
<path d="M79.0845 36.2898H76.9595C76.8989 35.9413 76.7872 35.6326 76.6243 35.3636C76.4614 35.0909 76.2588 34.8598 76.0163 34.6705C75.7739 34.4811 75.4974 34.339 75.1868 34.2443C74.88 34.1458 74.5485 34.0966 74.1925 34.0966C73.5599 34.0966 72.9993 34.2557 72.5107 34.5739C72.022 34.8883 71.6394 35.3504 71.3629 35.9602C71.0864 36.5663 70.9482 37.3068 70.9482 38.1818C70.9482 39.072 71.0864 39.822 71.3629 40.4318C71.6432 41.0379 72.0258 41.4962 72.5107 41.8068C72.9993 42.1136 73.558 42.267 74.1868 42.267C74.5353 42.267 74.861 42.2216 75.1641 42.1307C75.4709 42.036 75.7455 41.8977 75.9879 41.7159C76.2341 41.5341 76.4406 41.3106 76.6072 41.0455C76.7777 40.7803 76.8951 40.4773 76.9595 40.1364L79.0845 40.1477C79.005 40.7008 78.8326 41.2197 78.5675 41.7045C78.3061 42.1894 77.9633 42.6174 77.5391 42.9886C77.1148 43.3561 76.6186 43.6439 76.0504 43.8523C75.4822 44.0568 74.8516 44.1591 74.1584 44.1591C73.1357 44.1591 72.2228 43.9223 71.4197 43.4489C70.6167 42.9754 69.9841 42.2917 69.522 41.3977C69.0599 40.5038 68.8288 39.4318 68.8288 38.1818C68.8288 36.928 69.0618 35.8561 69.5277 34.9659C69.9936 34.072 70.6281 33.3883 71.4311 32.9148C72.2341 32.4413 73.1432 32.2045 74.1584 32.2045C74.8061 32.2045 75.4084 32.2955 75.9652 32.4773C76.522 32.6591 77.0182 32.9261 77.4538 33.2784C77.8894 33.6269 78.2474 34.0549 78.5277 34.5625C78.8118 35.0663 78.9974 35.642 79.0845 36.2898ZM82.9808 32.3636V44H80.924V32.3636H82.9808ZM85.0959 44V35.2727H87.1527V44H85.0959ZM86.13 34.0341C85.8042 34.0341 85.5239 33.9261 85.2891 33.7102C85.0542 33.4905 84.9368 33.2273 84.9368 32.9205C84.9368 32.6098 85.0542 32.3466 85.2891 32.1307C85.5239 31.911 85.8042 31.8011 86.13 31.8011C86.4595 31.8011 86.7398 31.911 86.9709 32.1307C87.2057 32.3466 87.3232 32.6098 87.3232 32.9205C87.3232 33.2273 87.2057 33.4905 86.9709 33.7102C86.7398 33.9261 86.4595 34.0341 86.13 34.0341ZM93.1314 44.1705C92.2564 44.1705 91.5007 43.9886 90.8643 43.625C90.2318 43.2576 89.745 42.7386 89.4041 42.0682C89.0632 41.3939 88.8928 40.6004 88.8928 39.6875C88.8928 38.7898 89.0632 38.0019 89.4041 37.3239C89.7488 36.642 90.2299 36.1117 90.8473 35.733C91.4647 35.3504 92.1901 35.1591 93.0234 35.1591C93.5613 35.1591 94.0689 35.2462 94.5462 35.4205C95.0272 35.5909 95.4515 35.8561 95.8189 36.2159C96.1901 36.5758 96.4818 37.0341 96.6939 37.5909C96.906 38.1439 97.0121 38.803 97.0121 39.5682V40.1989H89.8587V38.8125H95.0405C95.0367 38.4186 94.9515 38.0682 94.7848 37.7614C94.6181 37.4508 94.3852 37.2064 94.0859 37.0284C93.7905 36.8504 93.4458 36.7614 93.0518 36.7614C92.6314 36.7614 92.2621 36.8636 91.9439 37.0682C91.6257 37.2689 91.3776 37.5341 91.1996 37.8636C91.0253 38.1894 90.9363 38.5473 90.9325 38.9375V40.1477C90.9325 40.6553 91.0253 41.0909 91.2109 41.4545C91.3965 41.8144 91.656 42.0909 91.9893 42.2841C92.3227 42.4735 92.7128 42.5682 93.1598 42.5682C93.459 42.5682 93.7299 42.5265 93.9723 42.4432C94.2147 42.3561 94.425 42.2292 94.603 42.0625C94.781 41.8958 94.9155 41.6894 95.0064 41.4432L96.9268 41.6591C96.8056 42.1667 96.5746 42.6098 96.2337 42.9886C95.8965 43.3636 95.4647 43.6553 94.9382 43.8636C94.4117 44.0682 93.8094 44.1705 93.1314 44.1705ZM100.809 38.8864V44H98.7521V35.2727H100.718V36.7557H100.82C101.021 36.267 101.341 35.8788 101.781 35.5909C102.224 35.303 102.771 35.1591 103.423 35.1591C104.025 35.1591 104.549 35.2879 104.996 35.5455C105.447 35.803 105.796 36.1761 106.042 36.6648C106.292 37.1534 106.415 37.7462 106.411 38.4432V44H104.354V38.7614C104.354 38.178 104.203 37.7216 103.9 37.392C103.601 37.0625 103.186 36.8977 102.656 36.8977C102.296 36.8977 101.976 36.9773 101.695 37.1364C101.419 37.2917 101.201 37.517 101.042 37.8125C100.887 38.108 100.809 38.4659 100.809 38.8864ZM112.86 35.2727V36.8636H107.843V35.2727H112.86ZM109.082 33.1818H111.138V41.375C111.138 41.6515 111.18 41.8636 111.263 42.0114C111.351 42.1553 111.464 42.2538 111.604 42.3068C111.745 42.3598 111.9 42.3864 112.07 42.3864C112.199 42.3864 112.317 42.3769 112.423 42.358C112.532 42.339 112.616 42.322 112.673 42.3068L113.019 43.9148C112.909 43.9527 112.752 43.9943 112.548 44.0398C112.347 44.0852 112.101 44.1117 111.809 44.1193C111.294 44.1345 110.83 44.0568 110.417 43.8864C110.004 43.7121 109.676 43.4432 109.434 43.0795C109.195 42.7159 109.078 42.2614 109.082 41.7159V33.1818ZM118.64 44V32.3636H123.094C123.935 32.3636 124.634 32.4962 125.191 32.7614C125.752 33.0227 126.17 33.3807 126.447 33.8352C126.727 34.2898 126.867 34.8049 126.867 35.3807C126.867 35.8542 126.776 36.2595 126.594 36.5966C126.413 36.9299 126.168 37.2008 125.862 37.4091C125.555 37.6174 125.212 37.767 124.833 37.858V37.9716C125.246 37.9943 125.642 38.1212 126.021 38.3523C126.403 38.5795 126.716 38.9015 126.958 39.3182C127.201 39.7348 127.322 40.2386 127.322 40.8295C127.322 41.4318 127.176 41.9735 126.884 42.4545C126.593 42.9318 126.153 43.3087 125.566 43.5852C124.979 43.8617 124.24 44 123.35 44H118.64ZM120.748 42.2386H123.015C123.78 42.2386 124.331 42.0928 124.668 41.8011C125.009 41.5057 125.18 41.1269 125.18 40.6648C125.18 40.3201 125.094 40.0095 124.924 39.733C124.754 39.4527 124.511 39.233 124.197 39.0739C123.882 38.911 123.507 38.8295 123.072 38.8295H120.748V42.2386ZM120.748 37.3125H122.833C123.197 37.3125 123.524 37.2462 123.816 37.1136C124.108 36.9773 124.337 36.786 124.504 36.5398C124.674 36.2898 124.759 35.9943 124.759 35.6534C124.759 35.2027 124.6 34.8314 124.282 34.5398C123.968 34.2481 123.5 34.1023 122.879 34.1023H120.748V37.3125ZM131.576 44.1761C131.023 44.1761 130.525 44.0777 130.082 43.8807C129.642 43.6799 129.294 43.3845 129.036 42.9943C128.782 42.6042 128.656 42.1231 128.656 41.5511C128.656 41.0587 128.746 40.6515 128.928 40.3295C129.11 40.0076 129.358 39.75 129.673 39.5568C129.987 39.3636 130.341 39.2178 130.735 39.1193C131.133 39.017 131.544 38.9432 131.968 38.8977C132.479 38.8447 132.894 38.7973 133.212 38.7557C133.531 38.7102 133.762 38.642 133.906 38.5511C134.053 38.4564 134.127 38.3106 134.127 38.1136V38.0795C134.127 37.6515 134 37.3201 133.746 37.0852C133.493 36.8504 133.127 36.733 132.65 36.733C132.146 36.733 131.746 36.8428 131.451 37.0625C131.159 37.2822 130.962 37.5417 130.86 37.8409L128.94 37.5682C129.091 37.0379 129.341 36.5947 129.69 36.2386C130.038 35.8788 130.464 35.6098 130.968 35.4318C131.472 35.25 132.029 35.1591 132.638 35.1591C133.059 35.1591 133.478 35.2083 133.894 35.3068C134.311 35.4053 134.692 35.5682 135.036 35.7955C135.381 36.0189 135.657 36.3239 135.866 36.7102C136.078 37.0966 136.184 37.5795 136.184 38.1591V44H134.207V42.8011H134.138C134.013 43.0436 133.837 43.2708 133.61 43.483C133.387 43.6913 133.104 43.8598 132.763 43.9886C132.426 44.1136 132.031 44.1761 131.576 44.1761ZM132.11 42.6648C132.523 42.6648 132.881 42.5833 133.184 42.4205C133.487 42.2538 133.72 42.0341 133.883 41.7614C134.049 41.4886 134.133 41.1913 134.133 40.8693V39.8409C134.068 39.8939 133.959 39.9432 133.803 39.9886C133.652 40.0341 133.481 40.0739 133.292 40.108C133.103 40.142 132.915 40.1723 132.729 40.1989C132.544 40.2254 132.383 40.2481 132.246 40.267C131.94 40.3087 131.665 40.3769 131.423 40.4716C131.18 40.5663 130.989 40.6989 130.849 40.8693C130.709 41.036 130.638 41.2519 130.638 41.517C130.638 41.8958 130.777 42.1818 131.053 42.375C131.33 42.5682 131.682 42.6648 132.11 42.6648ZM140.309 32.3636V44H138.252V32.3636H140.309ZM144.935 44.1761C144.382 44.1761 143.884 44.0777 143.441 43.8807C143.002 43.6799 142.653 43.3845 142.396 42.9943C142.142 42.6042 142.015 42.1231 142.015 41.5511C142.015 41.0587 142.106 40.6515 142.288 40.3295C142.469 40.0076 142.718 39.75 143.032 39.5568C143.346 39.3636 143.701 39.2178 144.094 39.1193C144.492 39.017 144.903 38.9432 145.327 38.8977C145.839 38.8447 146.254 38.7973 146.572 38.7557C146.89 38.7102 147.121 38.642 147.265 38.5511C147.413 38.4564 147.487 38.3106 147.487 38.1136V38.0795C147.487 37.6515 147.36 37.3201 147.106 37.0852C146.852 36.8504 146.487 36.733 146.009 36.733C145.505 36.733 145.106 36.8428 144.81 37.0625C144.519 37.2822 144.322 37.5417 144.219 37.8409L142.299 37.5682C142.451 37.0379 142.701 36.5947 143.049 36.2386C143.397 35.8788 143.824 35.6098 144.327 35.4318C144.831 35.25 145.388 35.1591 145.998 35.1591C146.418 35.1591 146.837 35.2083 147.254 35.3068C147.67 35.4053 148.051 35.5682 148.396 35.7955C148.74 36.0189 149.017 36.3239 149.225 36.7102C149.437 37.0966 149.543 37.5795 149.543 38.1591V44H147.566V42.8011H147.498C147.373 43.0436 147.197 43.2708 146.969 43.483C146.746 43.6913 146.464 43.8598 146.123 43.9886C145.786 44.1136 145.39 44.1761 144.935 44.1761ZM145.469 42.6648C145.882 42.6648 146.24 42.5833 146.543 42.4205C146.846 42.2538 147.079 42.0341 147.242 41.7614C147.409 41.4886 147.492 41.1913 147.492 40.8693V39.8409C147.428 39.8939 147.318 39.9432 147.163 39.9886C147.011 40.0341 146.841 40.0739 146.651 40.108C146.462 40.142 146.274 40.1723 146.089 40.1989C145.903 40.2254 145.742 40.2481 145.606 40.267C145.299 40.3087 145.024 40.3769 144.782 40.4716C144.54 40.5663 144.348 40.6989 144.208 40.8693C144.068 41.036 143.998 41.2519 143.998 41.517C143.998 41.8958 144.136 42.1818 144.413 42.375C144.689 42.5682 145.041 42.6648 145.469 42.6648ZM153.668 38.8864V44H151.612V35.2727H153.577V36.7557H153.68C153.88 36.267 154.201 35.8788 154.64 35.5909C155.083 35.303 155.63 35.1591 156.282 35.1591C156.884 35.1591 157.409 35.2879 157.856 35.5455C158.307 35.803 158.655 36.1761 158.901 36.6648C159.151 37.1534 159.274 37.7462 159.271 38.4432V44H157.214V38.7614C157.214 38.178 157.062 37.7216 156.759 37.392C156.46 37.0625 156.045 36.8977 155.515 36.8977C155.155 36.8977 154.835 36.9773 154.555 37.1364C154.278 37.2917 154.06 37.517 153.901 37.8125C153.746 38.108 153.668 38.4659 153.668 38.8864ZM165.168 44.1705C164.297 44.1705 163.549 43.9792 162.924 43.5966C162.303 43.214 161.824 42.6856 161.487 42.0114C161.153 41.3333 160.987 40.553 160.987 39.6705C160.987 38.7841 161.157 38.0019 161.498 37.3239C161.839 36.642 162.32 36.1117 162.941 35.733C163.566 35.3504 164.305 35.1591 165.157 35.1591C165.865 35.1591 166.492 35.2898 167.038 35.5511C167.587 35.8087 168.024 36.1742 168.35 36.6477C168.676 37.1174 168.862 37.6667 168.907 38.2955H166.941C166.862 37.875 166.672 37.5246 166.373 37.2443C166.077 36.9602 165.682 36.8182 165.185 36.8182C164.765 36.8182 164.396 36.9318 164.077 37.1591C163.759 37.3826 163.511 37.7045 163.333 38.125C163.159 38.5455 163.072 39.0492 163.072 39.6364C163.072 40.2311 163.159 40.7424 163.333 41.1705C163.507 41.5947 163.752 41.9223 164.066 42.1534C164.384 42.3807 164.757 42.4943 165.185 42.4943C165.488 42.4943 165.759 42.4375 165.998 42.3239C166.24 42.2064 166.443 42.0379 166.606 41.8182C166.769 41.5985 166.88 41.3314 166.941 41.017H168.907C168.858 41.6345 168.676 42.1818 168.362 42.6591C168.047 43.1326 167.619 43.5038 167.077 43.7727C166.536 44.0379 165.899 44.1705 165.168 44.1705ZM174.46 44.1705C173.585 44.1705 172.829 43.9886 172.192 43.625C171.56 43.2576 171.073 42.7386 170.732 42.0682C170.391 41.3939 170.221 40.6004 170.221 39.6875C170.221 38.7898 170.391 38.0019 170.732 37.3239C171.077 36.642 171.558 36.1117 172.175 35.733C172.793 35.3504 173.518 35.1591 174.352 35.1591C174.889 35.1591 175.397 35.2462 175.874 35.4205C176.355 35.5909 176.78 35.8561 177.147 36.2159C177.518 36.5758 177.81 37.0341 178.022 37.5909C178.234 38.1439 178.34 38.803 178.34 39.5682V40.1989H171.187V38.8125H176.369C176.365 38.4186 176.28 38.0682 176.113 37.7614C175.946 37.4508 175.713 37.2064 175.414 37.0284C175.119 36.8504 174.774 36.7614 174.38 36.7614C173.96 36.7614 173.59 36.8636 173.272 37.0682C172.954 37.2689 172.706 37.5341 172.528 37.8636C172.353 38.1894 172.264 38.5473 172.261 38.9375V40.1477C172.261 40.6553 172.353 41.0909 172.539 41.4545C172.725 41.8144 172.984 42.0909 173.317 42.2841C173.651 42.4735 174.041 42.5682 174.488 42.5682C174.787 42.5682 175.058 42.5265 175.3 42.4432C175.543 42.3561 175.753 42.2292 175.931 42.0625C176.109 41.8958 176.244 41.6894 176.335 41.4432L178.255 41.6591C178.134 42.1667 177.903 42.6098 177.562 42.9886C177.225 43.3636 176.793 43.6553 176.266 43.8636C175.74 44.0682 175.138 44.1705 174.46 44.1705Z" fill="white"/>
<path d="M54.4906 64.1108H53.161C53.1099 63.8267 53.0147 63.5767 52.8755 63.3608C52.7363 63.1449 52.5659 62.9616 52.3642 62.8111C52.1625 62.6605 51.9366 62.5469 51.6866 62.4702C51.4395 62.3935 51.1767 62.3551 50.8983 62.3551C50.3954 62.3551 49.9451 62.4815 49.5474 62.7344C49.1525 62.9872 48.84 63.358 48.6099 63.8466C48.3826 64.3352 48.269 64.9318 48.269 65.6364C48.269 66.3466 48.3826 66.946 48.6099 67.4347C48.84 67.9233 49.1539 68.2926 49.5517 68.5426C49.9494 68.7926 50.3968 68.9176 50.894 68.9176C51.1696 68.9176 51.4309 68.8807 51.6781 68.8068C51.9281 68.7301 52.1539 68.6179 52.3556 68.4702C52.5574 68.3224 52.7278 68.142 52.867 67.929C53.0091 67.7131 53.1071 67.4659 53.161 67.1875L54.4906 67.1918C54.4196 67.6207 54.2818 68.0156 54.0772 68.3764C53.8755 68.7344 53.6156 69.044 53.2974 69.3054C52.9821 69.5639 52.6213 69.7642 52.215 69.9062C51.8088 70.0483 51.3656 70.1193 50.8855 70.1193C50.1298 70.1193 49.4565 69.9403 48.8656 69.5824C48.2747 69.2216 47.8088 68.706 47.4679 68.0355C47.1298 67.3651 46.9608 66.5653 46.9608 65.6364C46.9608 64.7045 47.1312 63.9048 47.4721 63.2372C47.813 62.5668 48.2789 62.0526 48.8699 61.6946C49.4608 61.3338 50.1326 61.1534 50.8855 61.1534C51.3485 61.1534 51.7804 61.2202 52.1809 61.3537C52.5843 61.4844 52.9466 61.6776 53.2676 61.9332C53.5886 62.1861 53.8542 62.4957 54.0645 62.8622C54.2747 63.2259 54.4167 63.642 54.4906 64.1108ZM57.2381 66.1136V70H55.964V61.2727H57.2211V64.5199H57.302C57.4554 64.1676 57.6898 63.8878 58.0051 63.6804C58.3205 63.473 58.7324 63.3693 59.2409 63.3693C59.6898 63.3693 60.0819 63.4616 60.4171 63.6463C60.7551 63.831 61.0165 64.1065 61.2012 64.473C61.3887 64.8366 61.4824 65.2912 61.4824 65.8366V70H60.2083V65.9901C60.2083 65.5099 60.0847 65.1378 59.8375 64.8736C59.5904 64.6065 59.2466 64.473 58.8063 64.473C58.5051 64.473 58.2353 64.5369 57.9966 64.6648C57.7608 64.7926 57.5748 64.9801 57.4384 65.2273C57.3049 65.4716 57.2381 65.767 57.2381 66.1136ZM66.0037 70.1321C65.3588 70.1321 64.8034 69.9943 64.3375 69.7188C63.8745 69.4403 63.5165 69.0497 63.2637 68.5469C63.0137 68.0412 62.8887 67.4489 62.8887 66.7699C62.8887 66.0994 63.0137 65.5085 63.2637 64.9972C63.5165 64.4858 63.8688 64.0866 64.3205 63.7997C64.775 63.5128 65.3063 63.3693 65.9142 63.3693C66.2836 63.3693 66.6415 63.4304 66.9881 63.5526C67.3347 63.6747 67.6458 63.8665 67.9213 64.1278C68.1969 64.3892 68.4142 64.7287 68.5733 65.1463C68.7324 65.5611 68.812 66.0653 68.812 66.6591V67.1108H63.6088V66.1562H67.5634C67.5634 65.821 67.4952 65.5241 67.3588 65.2656C67.2225 65.0043 67.0307 64.7983 66.7836 64.6477C66.5392 64.4972 66.2523 64.4219 65.9228 64.4219C65.5648 64.4219 65.2523 64.5099 64.9853 64.6861C64.7211 64.8594 64.5165 65.0866 64.3716 65.3679C64.2296 65.6463 64.1586 65.9489 64.1586 66.2756V67.0213C64.1586 67.4588 64.2353 67.831 64.3887 68.1378C64.5449 68.4446 64.7623 68.679 65.0407 68.8409C65.3191 69 65.6444 69.0795 66.0165 69.0795C66.258 69.0795 66.4782 69.0455 66.677 68.9773C66.8759 68.9062 67.0478 68.8011 67.1926 68.6619C67.3375 68.5227 67.4483 68.3509 67.525 68.1463L68.731 68.3636C68.6344 68.7187 68.4611 69.0298 68.2111 69.2969C67.964 69.5611 67.6529 69.767 67.2779 69.9148C66.9057 70.0597 66.481 70.1321 66.0037 70.1321ZM72.9828 70.1321C72.3493 70.1321 71.8038 69.9886 71.3464 69.7017C70.8919 69.4119 70.5424 69.0128 70.2981 68.5043C70.0538 67.9957 69.9316 67.4134 69.9316 66.7571C69.9316 66.0923 70.0566 65.5057 70.3066 64.9972C70.5566 64.4858 70.9089 64.0866 71.3635 63.7997C71.818 63.5128 72.3535 63.3693 72.97 63.3693C73.4672 63.3693 73.9103 63.4616 74.2995 63.6463C74.6887 63.8281 75.0027 64.0838 75.2413 64.4134C75.4828 64.7429 75.6262 65.1278 75.6717 65.5682H74.4316C74.3635 65.2614 74.2072 64.9972 73.9629 64.7756C73.7214 64.554 73.3975 64.4432 72.9913 64.4432C72.6362 64.4432 72.3251 64.5369 72.0581 64.7244C71.7939 64.9091 71.5879 65.1733 71.4402 65.517C71.2924 65.858 71.2186 66.2614 71.2186 66.7273C71.2186 67.2045 71.291 67.6165 71.4359 67.9631C71.5808 68.3097 71.7853 68.5781 72.0495 68.7685C72.3166 68.9588 72.6305 69.054 72.9913 69.054C73.2328 69.054 73.4515 69.0099 73.6475 68.9219C73.8464 68.831 74.0126 68.7017 74.1461 68.5341C74.2825 68.3665 74.3777 68.1648 74.4316 67.929H75.6717C75.6262 68.3523 75.4885 68.7301 75.2583 69.0625C75.0282 69.3949 74.72 69.6562 74.3336 69.8466C73.9501 70.0369 73.4998 70.1321 72.9828 70.1321ZM78.2061 67.7798L78.1976 66.2244H78.4192L81.0272 63.4545H82.5527L79.5783 66.608H79.378L78.2061 67.7798ZM77.0343 70V61.2727H78.3084V70H77.0343ZM81.1678 70L78.824 66.8892L79.7019 65.9986L82.7317 70H81.1678ZM88.7946 70.1449C88.3798 70.1449 88.0048 70.0682 87.6696 69.9148C87.3343 69.7585 87.0687 69.5327 86.8727 69.2372C86.6795 68.9418 86.5829 68.5795 86.5829 68.1506C86.5829 67.7812 86.6539 67.4773 86.796 67.2386C86.938 67 87.1298 66.8111 87.3713 66.6719C87.6127 66.5327 87.8826 66.4276 88.1809 66.3565C88.4792 66.2855 88.7832 66.2315 89.0929 66.1946C89.4849 66.1491 89.8031 66.1122 90.0474 66.0838C90.2917 66.0526 90.4693 66.0028 90.5801 65.9347C90.6909 65.8665 90.7463 65.7557 90.7463 65.6023V65.5724C90.7463 65.2003 90.6412 64.9119 90.4309 64.7074C90.2235 64.5028 89.9139 64.4006 89.502 64.4006C89.073 64.4006 88.7349 64.4957 88.4877 64.6861C88.2434 64.8736 88.0744 65.0824 87.9806 65.3125L86.7832 65.0398C86.9252 64.642 87.1326 64.321 87.4054 64.0767C87.6809 63.8295 87.9977 63.6506 88.3556 63.5398C88.7136 63.4261 89.09 63.3693 89.4849 63.3693C89.7463 63.3693 90.0233 63.4006 90.3159 63.4631C90.6113 63.5227 90.8869 63.6335 91.1426 63.7955C91.4011 63.9574 91.6127 64.1889 91.7775 64.4901C91.9423 64.7884 92.0247 65.1761 92.0247 65.6534V70H90.7804V69.1051H90.7292C90.6468 69.2699 90.5233 69.4318 90.3585 69.5909C90.1937 69.75 89.9821 69.8821 89.7235 69.9872C89.465 70.0923 89.1554 70.1449 88.7946 70.1449ZM89.0716 69.1222C89.4238 69.1222 89.725 69.0526 89.975 68.9134C90.2278 68.7741 90.4196 68.5923 90.5502 68.3679C90.6838 68.1406 90.7505 67.8977 90.7505 67.6392V66.7955C90.7051 66.8409 90.617 66.8835 90.4863 66.9233C90.3585 66.9602 90.2122 66.9929 90.0474 67.0213C89.8826 67.0469 89.7221 67.071 89.5659 67.0938C89.4096 67.1136 89.2789 67.1307 89.1738 67.1449C88.9267 67.1761 88.7008 67.2287 88.4963 67.3026C88.2946 67.3764 88.1326 67.483 88.0105 67.6222C87.8912 67.7585 87.8315 67.9403 87.8315 68.1676C87.8315 68.483 87.948 68.7216 88.1809 68.8835C88.4139 69.0426 88.7108 69.1222 89.0716 69.1222ZM96.4789 70.1321C95.8453 70.1321 95.2999 69.9886 94.8425 69.7017C94.388 69.4119 94.0385 69.0128 93.7942 68.5043C93.5499 67.9957 93.4277 67.4134 93.4277 66.7571C93.4277 66.0923 93.5527 65.5057 93.8027 64.9972C94.0527 64.4858 94.405 64.0866 94.8596 63.7997C95.3141 63.5128 95.8496 63.3693 96.4661 63.3693C96.9632 63.3693 97.4064 63.4616 97.7956 63.6463C98.1848 63.8281 98.4988 64.0838 98.7374 64.4134C98.9789 64.7429 99.1223 65.1278 99.1678 65.5682H97.9277C97.8596 65.2614 97.7033 64.9972 97.459 64.7756C97.2175 64.554 96.8936 64.4432 96.4874 64.4432C96.1323 64.4432 95.8212 64.5369 95.5542 64.7244C95.29 64.9091 95.084 65.1733 94.9363 65.517C94.7885 65.858 94.7147 66.2614 94.7147 66.7273C94.7147 67.2045 94.7871 67.6165 94.932 67.9631C95.0769 68.3097 95.2814 68.5781 95.5456 68.7685C95.8127 68.9588 96.1266 69.054 96.4874 69.054C96.7289 69.054 96.9476 69.0099 97.1436 68.9219C97.3425 68.831 97.5087 68.7017 97.6422 68.5341C97.7786 68.3665 97.8738 68.1648 97.9277 67.929H99.1678C99.1223 68.3523 98.9846 68.7301 98.7544 69.0625C98.5243 69.3949 98.2161 69.6562 97.8297 69.8466C97.4462 70.0369 96.9959 70.1321 96.4789 70.1321ZM103.287 70.1321C102.654 70.1321 102.108 69.9886 101.651 69.7017C101.197 69.4119 100.847 69.0128 100.603 68.5043C100.358 67.9957 100.236 67.4134 100.236 66.7571C100.236 66.0923 100.361 65.5057 100.611 64.9972C100.861 64.4858 101.214 64.0866 101.668 63.7997C102.123 63.5128 102.658 63.3693 103.275 63.3693C103.772 63.3693 104.215 63.4616 104.604 63.6463C104.993 63.8281 105.307 64.0838 105.546 64.4134C105.787 64.7429 105.931 65.1278 105.976 65.5682H104.736C104.668 65.2614 104.512 64.9972 104.268 64.7756C104.026 64.554 103.702 64.4432 103.296 64.4432C102.941 64.4432 102.63 64.5369 102.363 64.7244C102.099 64.9091 101.893 65.1733 101.745 65.517C101.597 65.858 101.523 66.2614 101.523 66.7273C101.523 67.2045 101.596 67.6165 101.741 67.9631C101.885 68.3097 102.09 68.5781 102.354 68.7685C102.621 68.9588 102.935 69.054 103.296 69.054C103.537 69.054 103.756 69.0099 103.952 68.9219C104.151 68.831 104.317 68.7017 104.451 68.5341C104.587 68.3665 104.682 68.1648 104.736 67.929H105.976C105.931 68.3523 105.793 68.7301 105.563 69.0625C105.333 69.3949 105.025 69.6562 104.638 69.8466C104.255 70.0369 103.805 70.1321 103.287 70.1321ZM110.096 70.1321C109.482 70.1321 108.947 69.9915 108.49 69.7102C108.032 69.429 107.677 69.0355 107.424 68.5298C107.171 68.0241 107.045 67.4332 107.045 66.7571C107.045 66.0781 107.171 65.4844 107.424 64.9759C107.677 64.4673 108.032 64.0724 108.49 63.7912C108.947 63.5099 109.482 63.3693 110.096 63.3693C110.71 63.3693 111.245 63.5099 111.703 63.7912C112.16 64.0724 112.515 64.4673 112.768 64.9759C113.021 65.4844 113.147 66.0781 113.147 66.7571C113.147 67.4332 113.021 68.0241 112.768 68.5298C112.515 69.0355 112.16 69.429 111.703 69.7102C111.245 69.9915 110.71 70.1321 110.096 70.1321ZM110.1 69.0625C110.498 69.0625 110.828 68.9574 111.089 68.7472C111.35 68.5369 111.544 68.2571 111.669 67.9077C111.796 67.5582 111.86 67.1733 111.86 66.7528C111.86 66.3352 111.796 65.9517 111.669 65.6023C111.544 65.25 111.35 64.9673 111.089 64.7543C110.828 64.5412 110.498 64.4347 110.1 64.4347C109.7 64.4347 109.367 64.5412 109.103 64.7543C108.842 64.9673 108.647 65.25 108.519 65.6023C108.394 65.9517 108.332 66.3352 108.332 66.7528C108.332 67.1733 108.394 67.5582 108.519 67.9077C108.647 68.2571 108.842 68.5369 109.103 68.7472C109.367 68.9574 109.7 69.0625 110.1 69.0625ZM118.716 67.2855V63.4545H119.994V70H118.741V68.8665H118.673C118.523 69.2159 118.281 69.5071 117.949 69.7401C117.619 69.9702 117.209 70.0852 116.717 70.0852C116.297 70.0852 115.925 69.9929 115.601 69.8082C115.28 69.6207 115.027 69.3438 114.842 68.9773C114.66 68.6108 114.569 68.1577 114.569 67.6179V63.4545H115.844V67.4645C115.844 67.9105 115.967 68.2656 116.214 68.5298C116.461 68.794 116.782 68.9261 117.177 68.9261C117.416 68.9261 117.653 68.8665 117.889 68.7472C118.128 68.6278 118.325 68.4474 118.481 68.206C118.64 67.9645 118.719 67.6577 118.716 67.2855ZM122.98 66.1136V70H121.706V63.4545H122.929V64.5199H123.01C123.161 64.1733 123.396 63.8949 123.718 63.6847C124.041 63.4744 124.449 63.3693 124.941 63.3693C125.387 63.3693 125.777 63.4631 126.112 63.6506C126.448 63.8352 126.708 64.1108 126.892 64.4773C127.077 64.8437 127.169 65.2969 127.169 65.8366V70H125.895V65.9901C125.895 65.5156 125.771 65.1449 125.524 64.8778C125.277 64.608 124.938 64.473 124.506 64.473C124.21 64.473 123.948 64.5369 123.718 64.6648C123.49 64.7926 123.31 64.9801 123.176 65.2273C123.046 65.4716 122.98 65.767 122.98 66.1136ZM131.933 63.4545V64.4773H128.358V63.4545H131.933ZM129.317 61.8864H130.591V68.0781C130.591 68.3253 130.628 68.5114 130.702 68.6364C130.776 68.7585 130.871 68.8423 130.987 68.8878C131.107 68.9304 131.236 68.9517 131.375 68.9517C131.477 68.9517 131.567 68.9446 131.644 68.9304C131.72 68.9162 131.78 68.9048 131.823 68.8963L132.053 69.9489C131.979 69.9773 131.874 70.0057 131.737 70.0341C131.601 70.0653 131.431 70.0824 131.226 70.0852C130.891 70.0909 130.578 70.0312 130.289 69.9062C129.999 69.7812 129.764 69.5881 129.585 69.3267C129.406 69.0653 129.317 68.7372 129.317 68.3423V61.8864ZM141.381 63.5653C141.335 63.1619 141.148 62.8494 140.818 62.6278C140.489 62.4034 140.074 62.2912 139.574 62.2912C139.216 62.2912 138.906 62.348 138.645 62.4616C138.384 62.5724 138.181 62.7259 138.036 62.9219C137.894 63.1151 137.823 63.3352 137.823 63.5824C137.823 63.7898 137.871 63.9687 137.968 64.1193C138.067 64.2699 138.196 64.3963 138.355 64.4986C138.517 64.598 138.691 64.6818 138.875 64.75C139.06 64.8153 139.237 64.8693 139.408 64.9119L140.26 65.1335C140.539 65.2017 140.824 65.294 141.117 65.4105C141.409 65.527 141.681 65.6804 141.931 65.8707C142.181 66.0611 142.382 66.2969 142.536 66.5781C142.692 66.8594 142.77 67.196 142.77 67.5881C142.77 68.0824 142.642 68.5213 142.387 68.9048C142.134 69.2884 141.766 69.5909 141.283 69.8125C140.803 70.0341 140.222 70.1449 139.54 70.1449C138.887 70.1449 138.321 70.0412 137.844 69.8338C137.367 69.6264 136.993 69.3324 136.723 68.9517C136.453 68.5682 136.304 68.1136 136.276 67.5881H137.597C137.622 67.9034 137.725 68.1662 137.904 68.3764C138.085 68.5838 138.317 68.7386 138.598 68.8409C138.882 68.9403 139.193 68.9901 139.531 68.9901C139.904 68.9901 140.235 68.9318 140.524 68.8153C140.817 68.696 141.047 68.5312 141.215 68.321C141.382 68.108 141.466 67.8594 141.466 67.5753C141.466 67.3168 141.392 67.1051 141.244 66.9403C141.1 66.7756 140.902 66.6392 140.652 66.5312C140.405 66.4233 140.125 66.3281 139.813 66.2457L138.781 65.9645C138.083 65.7741 137.529 65.4943 137.119 65.125C136.713 64.7557 136.51 64.267 136.51 63.6591C136.51 63.1562 136.646 62.7173 136.919 62.3423C137.192 61.9673 137.561 61.6761 138.027 61.4688C138.493 61.2585 139.019 61.1534 139.604 61.1534C140.195 61.1534 140.716 61.2571 141.168 61.4645C141.622 61.6719 141.98 61.9574 142.242 62.321C142.503 62.6818 142.639 63.0966 142.651 63.5653H141.381ZM147.297 63.4545V64.4773H143.721V63.4545H147.297ZM144.68 61.8864H145.954V68.0781C145.954 68.3253 145.991 68.5114 146.065 68.6364C146.139 68.7585 146.234 68.8423 146.351 68.8878C146.47 68.9304 146.599 68.9517 146.738 68.9517C146.841 68.9517 146.93 68.9446 147.007 68.9304C147.084 68.9162 147.143 68.9048 147.186 68.8963L147.416 69.9489C147.342 69.9773 147.237 70.0057 147.101 70.0341C146.964 70.0653 146.794 70.0824 146.589 70.0852C146.254 70.0909 145.942 70.0312 145.652 69.9062C145.362 69.7812 145.128 69.5881 144.949 69.3267C144.77 69.0653 144.68 68.7372 144.68 68.3423V61.8864ZM150.611 70.1449C150.196 70.1449 149.821 70.0682 149.486 69.9148C149.151 69.7585 148.885 69.5327 148.689 69.2372C148.496 68.9418 148.399 68.5795 148.399 68.1506C148.399 67.7812 148.47 67.4773 148.612 67.2386C148.754 67 148.946 66.8111 149.188 66.6719C149.429 66.5327 149.699 66.4276 149.997 66.3565C150.296 66.2855 150.6 66.2315 150.909 66.1946C151.301 66.1491 151.619 66.1122 151.864 66.0838C152.108 66.0526 152.286 66.0028 152.396 65.9347C152.507 65.8665 152.563 65.7557 152.563 65.6023V65.5724C152.563 65.2003 152.458 64.9119 152.247 64.7074C152.04 64.5028 151.73 64.4006 151.318 64.4006C150.889 64.4006 150.551 64.4957 150.304 64.6861C150.06 64.8736 149.891 65.0824 149.797 65.3125L148.6 65.0398C148.742 64.642 148.949 64.321 149.222 64.0767C149.497 63.8295 149.814 63.6506 150.172 63.5398C150.53 63.4261 150.906 63.3693 151.301 63.3693C151.563 63.3693 151.84 63.4006 152.132 63.4631C152.428 63.5227 152.703 63.6335 152.959 63.7955C153.218 63.9574 153.429 64.1889 153.594 64.4901C153.759 64.7884 153.841 65.1761 153.841 65.6534V70H152.597V69.1051H152.546C152.463 69.2699 152.34 69.4318 152.175 69.5909C152.01 69.75 151.798 69.8821 151.54 69.9872C151.281 70.0923 150.972 70.1449 150.611 70.1449ZM150.888 69.1222C151.24 69.1222 151.541 69.0526 151.791 68.9134C152.044 68.7741 152.236 68.5923 152.367 68.3679C152.5 68.1406 152.567 67.8977 152.567 67.6392V66.7955C152.521 66.8409 152.433 66.8835 152.303 66.9233C152.175 66.9602 152.029 66.9929 151.864 67.0213C151.699 67.0469 151.539 67.071 151.382 67.0938C151.226 67.1136 151.095 67.1307 150.99 67.1449C150.743 67.1761 150.517 67.2287 150.313 67.3026C150.111 67.3764 149.949 67.483 149.827 67.6222C149.708 67.7585 149.648 67.9403 149.648 68.1676C149.648 68.483 149.764 68.7216 149.997 68.8835C150.23 69.0426 150.527 69.1222 150.888 69.1222ZM158.594 63.4545V64.4773H155.018V63.4545H158.594ZM155.977 61.8864H157.251V68.0781C157.251 68.3253 157.288 68.5114 157.362 68.6364C157.436 68.7585 157.531 68.8423 157.648 68.8878C157.767 68.9304 157.896 68.9517 158.035 68.9517C158.138 68.9517 158.227 68.9446 158.304 68.9304C158.381 68.9162 158.44 68.9048 158.483 68.8963L158.713 69.9489C158.639 69.9773 158.534 70.0057 158.398 70.0341C158.261 70.0653 158.091 70.0824 157.886 70.0852C157.551 70.0909 157.238 70.0312 156.949 69.9062C156.659 69.7812 156.425 69.5881 156.246 69.3267C156.067 69.0653 155.977 68.7372 155.977 68.3423V61.8864ZM164.149 67.2855V63.4545H165.428V70H164.175V68.8665H164.107C163.956 69.2159 163.715 69.5071 163.382 69.7401C163.053 69.9702 162.642 70.0852 162.151 70.0852C161.73 70.0852 161.358 69.9929 161.034 69.8082C160.713 69.6207 160.46 69.3438 160.276 68.9773C160.094 68.6108 160.003 68.1577 160.003 67.6179V63.4545H161.277V67.4645C161.277 67.9105 161.401 68.2656 161.648 68.5298C161.895 68.794 162.216 68.9261 162.611 68.9261C162.85 68.9261 163.087 68.8665 163.323 68.7472C163.561 68.6278 163.759 68.4474 163.915 68.206C164.074 67.9645 164.152 67.6577 164.149 67.2855ZM172.045 65.0526L170.89 65.2571C170.841 65.1094 170.765 64.9687 170.66 64.8352C170.557 64.7017 170.418 64.5923 170.242 64.5071C170.066 64.4219 169.846 64.3793 169.581 64.3793C169.221 64.3793 168.92 64.4602 168.678 64.6222C168.437 64.7812 168.316 64.9872 168.316 65.2401C168.316 65.4588 168.397 65.6349 168.559 65.7685C168.721 65.902 168.982 66.0114 169.343 66.0966L170.383 66.3352C170.985 66.4744 171.434 66.6889 171.729 66.9787C172.025 67.2685 172.172 67.6449 172.172 68.108C172.172 68.5 172.059 68.8494 171.831 69.1562C171.607 69.4602 171.293 69.6989 170.89 69.8722C170.489 70.0455 170.025 70.1321 169.496 70.1321C168.763 70.1321 168.165 69.9759 167.702 69.6634C167.239 69.348 166.955 68.9006 166.85 68.321L168.081 68.1335C168.158 68.4545 168.316 68.6974 168.555 68.8622C168.793 69.0241 169.104 69.1051 169.488 69.1051C169.905 69.1051 170.239 69.0185 170.489 68.8452C170.739 68.669 170.864 68.4545 170.864 68.2017C170.864 67.9972 170.787 67.8253 170.634 67.6861C170.483 67.5469 170.252 67.4418 169.939 67.3707L168.831 67.1278C168.221 66.9886 167.769 66.767 167.476 66.4631C167.187 66.1591 167.042 65.7741 167.042 65.3082C167.042 64.9219 167.15 64.5838 167.366 64.294C167.581 64.0043 167.88 63.7784 168.26 63.6165C168.641 63.4517 169.077 63.3693 169.569 63.3693C170.276 63.3693 170.833 63.5227 171.239 63.8295C171.645 64.1335 171.914 64.5412 172.045 65.0526Z" fill="white"/>
<defs>
<radialGradient id="paint0_radial_1395_2539" cx="0" cy="0" r="1" gradientUnits="userSpaceOnUse" gradientTransform="translate(117.75 53) rotate(35.3546) scale(190.967 270.92)">
<stop offset="0.331731" stop-color="#176639"/>
<stop offset="0.408654" stop-color="#2ECC71"/>
<stop offset="0.442308" stop-color="#176639"/>
</radialGradient>
<clipPath id="clip0_1395_2539">
<rect width="24" height="24" fill="white" transform="translate(39.5 26)"/>
</clipPath>
</defs>
</svg>
