<svg width="219" height="100" viewBox="0 0 219 100" fill="none" xmlns="http://www.w3.org/2000/svg">
<path d="M0 10C0 4.47716 4.47715 0 10 0H209C214.523 0 219 4.47715 219 10V90C219 95.5228 214.523 100 209 100H10C4.47715 100 0 95.5229 0 90V10Z" fill="url(#paint0_radial_1395_2521)"/>
<g clip-path="url(#clip0_1395_2521)">
<path d="M63 39.75C60.66 39.75 56 40.92 56 43.25V45H70V43.25C70 40.92 65.34 39.75 63 39.75ZM58.34 43C59.18 42.42 61.21 41.75 63 41.75C64.79 41.75 66.82 42.42 67.66 43H58.34ZM63 38C64.93 38 66.5 36.43 66.5 34.5C66.5 32.57 64.93 31 63 31C61.07 31 59.5 32.57 59.5 34.5C59.5 36.43 61.07 38 63 38ZM63 33C63.83 33 64.5 33.67 64.5 34.5C64.5 35.33 63.83 36 63 36C62.17 36 61.5 35.33 61.5 34.5C61.5 33.67 62.17 33 63 33ZM70.04 39.81C71.2 40.65 72 41.77 72 43.25V45H76V43.25C76 41.23 72.5 40.08 70.04 39.81ZM69 38C70.93 38 72.5 36.43 72.5 34.5C72.5 32.57 70.93 31 69 31C68.46 31 67.96 31.13 67.5 31.35C68.13 32.24 68.5 33.33 68.5 34.5C68.5 35.67 68.13 36.76 67.5 37.65C67.96 37.87 68.46 38 69 38Z" fill="white"/>
</g>
<path d="M83.2024 44V32.3636H90.657V34.1307H85.3104V37.2898H90.1456V39.0568H85.3104V44H83.2024ZM92.4865 44V35.2727H94.5433V44H92.4865ZM93.5206 34.0341C93.1948 34.0341 92.9145 33.9261 92.6797 33.7102C92.4448 33.4905 92.3274 33.2273 92.3274 32.9205C92.3274 32.6098 92.4448 32.3466 92.6797 32.1307C92.9145 31.911 93.1948 31.8011 93.5206 31.8011C93.8501 31.8011 94.1304 31.911 94.3615 32.1307C94.5964 32.3466 94.7138 32.6098 94.7138 32.9205C94.7138 33.2273 94.5964 33.4905 94.3615 33.7102C94.1304 33.9261 93.8501 34.0341 93.5206 34.0341ZM98.7152 38.8864V44H96.6584V35.2727H98.6243V36.7557H98.7266C98.9273 36.267 99.2474 35.8788 99.6868 35.5909C100.13 35.303 100.677 35.1591 101.329 35.1591C101.931 35.1591 102.456 35.2879 102.903 35.5455C103.353 35.803 103.702 36.1761 103.948 36.6648C104.198 37.1534 104.321 37.7462 104.317 38.4432V44H102.261V38.7614C102.261 38.178 102.109 37.7216 101.806 37.392C101.507 37.0625 101.092 36.8977 100.562 36.8977C100.202 36.8977 99.8819 36.9773 99.6016 37.1364C99.325 37.2917 99.1072 37.517 98.9482 37.8125C98.7929 38.108 98.7152 38.4659 98.7152 38.8864ZM109.647 44.1534C108.961 44.1534 108.348 43.9773 107.806 43.625C107.264 43.2727 106.836 42.7614 106.522 42.0909C106.208 41.4205 106.05 40.6061 106.05 39.6477C106.05 38.678 106.21 37.8598 106.528 37.1932C106.85 36.5227 107.283 36.017 107.829 35.6761C108.374 35.3314 108.982 35.1591 109.653 35.1591C110.164 35.1591 110.585 35.2462 110.914 35.4205C111.244 35.5909 111.505 35.7973 111.698 36.0398C111.891 36.2784 112.041 36.5038 112.147 36.7159H112.232V32.3636H114.295V44H112.272V42.625H112.147C112.041 42.8371 111.888 43.0625 111.687 43.3011C111.486 43.536 111.221 43.7367 110.891 43.9034C110.562 44.0701 110.147 44.1534 109.647 44.1534ZM110.221 42.4659C110.656 42.4659 111.028 42.3485 111.335 42.1136C111.641 41.875 111.874 41.5436 112.033 41.1193C112.192 40.6951 112.272 40.2008 112.272 39.6364C112.272 39.072 112.192 38.5814 112.033 38.1648C111.878 37.7481 111.647 37.4242 111.34 37.1932C111.037 36.9621 110.664 36.8466 110.221 36.8466C109.763 36.8466 109.38 36.9659 109.073 37.2045C108.766 37.4432 108.535 37.7727 108.38 38.1932C108.225 38.6136 108.147 39.0947 108.147 39.6364C108.147 40.1818 108.225 40.6686 108.38 41.0966C108.539 41.5208 108.772 41.8561 109.079 42.1023C109.389 42.3447 109.77 42.4659 110.221 42.4659ZM130.506 36.2898H128.381C128.321 35.9413 128.209 35.6326 128.046 35.3636C127.883 35.0909 127.681 34.8598 127.438 34.6705C127.196 34.4811 126.919 34.339 126.609 34.2443C126.302 34.1458 125.97 34.0966 125.614 34.0966C124.982 34.0966 124.421 34.2557 123.933 34.5739C123.444 34.8883 123.061 35.3504 122.785 35.9602C122.508 36.5663 122.37 37.3068 122.37 38.1818C122.37 39.072 122.508 39.822 122.785 40.4318C123.065 41.0379 123.448 41.4962 123.933 41.8068C124.421 42.1136 124.98 42.267 125.609 42.267C125.957 42.267 126.283 42.2216 126.586 42.1307C126.893 42.036 127.167 41.8977 127.41 41.7159C127.656 41.5341 127.862 41.3106 128.029 41.0455C128.2 40.7803 128.317 40.4773 128.381 40.1364L130.506 40.1477C130.427 40.7008 130.254 41.2197 129.989 41.7045C129.728 42.1894 129.385 42.6174 128.961 42.9886C128.537 43.3561 128.04 43.6439 127.472 43.8523C126.904 44.0568 126.273 44.1591 125.58 44.1591C124.558 44.1591 123.645 43.9223 122.842 43.4489C122.039 42.9754 121.406 42.2917 120.944 41.3977C120.482 40.5038 120.251 39.4318 120.251 38.1818C120.251 36.928 120.484 35.8561 120.95 34.9659C121.415 34.072 122.05 33.3883 122.853 32.9148C123.656 32.4413 124.565 32.2045 125.58 32.2045C126.228 32.2045 126.83 32.2955 127.387 32.4773C127.944 32.6591 128.44 32.9261 128.876 33.2784C129.311 33.6269 129.669 34.0549 129.95 34.5625C130.234 35.0663 130.419 35.642 130.506 36.2898ZM134.403 32.3636V44H132.346V32.3636H134.403ZM136.518 44V35.2727H138.575V44H136.518ZM137.552 34.0341C137.226 34.0341 136.946 33.9261 136.711 33.7102C136.476 33.4905 136.359 33.2273 136.359 32.9205C136.359 32.6098 136.476 32.3466 136.711 32.1307C136.946 31.911 137.226 31.8011 137.552 31.8011C137.881 31.8011 138.162 31.911 138.393 32.1307C138.628 32.3466 138.745 32.6098 138.745 32.9205C138.745 33.2273 138.628 33.4905 138.393 33.7102C138.162 33.9261 137.881 34.0341 137.552 34.0341ZM144.553 44.1705C143.678 44.1705 142.923 43.9886 142.286 43.625C141.654 43.2576 141.167 42.7386 140.826 42.0682C140.485 41.3939 140.315 40.6004 140.315 39.6875C140.315 38.7898 140.485 38.0019 140.826 37.3239C141.171 36.642 141.652 36.1117 142.269 35.733C142.887 35.3504 143.612 35.1591 144.445 35.1591C144.983 35.1591 145.491 35.2462 145.968 35.4205C146.449 35.5909 146.873 35.8561 147.241 36.2159C147.612 36.5758 147.904 37.0341 148.116 37.5909C148.328 38.1439 148.434 38.803 148.434 39.5682V40.1989H141.281V38.8125H146.462C146.459 38.4186 146.373 38.0682 146.207 37.7614C146.04 37.4508 145.807 37.2064 145.508 37.0284C145.212 36.8504 144.868 36.7614 144.474 36.7614C144.053 36.7614 143.684 36.8636 143.366 37.0682C143.048 37.2689 142.799 37.5341 142.621 37.8636C142.447 38.1894 142.358 38.5473 142.354 38.9375V40.1477C142.354 40.6553 142.447 41.0909 142.633 41.4545C142.818 41.8144 143.078 42.0909 143.411 42.2841C143.745 42.4735 144.135 42.5682 144.582 42.5682C144.881 42.5682 145.152 42.5265 145.394 42.4432C145.637 42.3561 145.847 42.2292 146.025 42.0625C146.203 41.8958 146.337 41.6894 146.428 41.4432L148.349 41.6591C148.228 42.1667 147.996 42.6098 147.656 42.9886C147.318 43.3636 146.887 43.6553 146.36 43.8636C145.834 44.0682 145.231 44.1705 144.553 44.1705ZM152.231 38.8864V44H150.174V35.2727H152.14V36.7557H152.242C152.443 36.267 152.763 35.8788 153.202 35.5909C153.646 35.303 154.193 35.1591 154.844 35.1591C155.447 35.1591 155.971 35.2879 156.418 35.5455C156.869 35.803 157.218 36.1761 157.464 36.6648C157.714 37.1534 157.837 37.7462 157.833 38.4432V44H155.776V38.7614C155.776 38.178 155.625 37.7216 155.322 37.392C155.022 37.0625 154.608 36.8977 154.077 36.8977C153.718 36.8977 153.397 36.9773 153.117 37.1364C152.841 37.2917 152.623 37.517 152.464 37.8125C152.308 38.108 152.231 38.4659 152.231 38.8864ZM164.282 35.2727V36.8636H159.265V35.2727H164.282ZM160.504 33.1818H162.56V41.375C162.56 41.6515 162.602 41.8636 162.685 42.0114C162.772 42.1553 162.886 42.2538 163.026 42.3068C163.166 42.3598 163.322 42.3864 163.492 42.3864C163.621 42.3864 163.738 42.3769 163.844 42.358C163.954 42.339 164.038 42.322 164.094 42.3068L164.441 43.9148C164.331 43.9527 164.174 43.9943 163.969 44.0398C163.769 44.0852 163.522 44.1117 163.231 44.1193C162.716 44.1345 162.252 44.0568 161.839 43.8864C161.426 43.7121 161.098 43.4432 160.856 43.0795C160.617 42.7159 160.5 42.2614 160.504 41.7159V33.1818Z" fill="white"/>
<path d="M51.7793 63.5653C51.7338 63.1619 51.5463 62.8494 51.2168 62.6278C50.8873 62.4034 50.4725 62.2912 49.9725 62.2912C49.6145 62.2912 49.3049 62.348 49.0435 62.4616C48.7821 62.5724 48.579 62.7259 48.4341 62.9219C48.2921 63.1151 48.2211 63.3352 48.2211 63.5824C48.2211 63.7898 48.2694 63.9687 48.3659 64.1193C48.4654 64.2699 48.5946 64.3963 48.7537 64.4986C48.9157 64.598 49.089 64.6818 49.2736 64.75C49.4583 64.8153 49.6358 64.8693 49.8063 64.9119L50.6586 65.1335C50.937 65.2017 51.2225 65.294 51.5151 65.4105C51.8077 65.527 52.079 65.6804 52.329 65.8707C52.579 66.0611 52.7807 66.2969 52.9341 66.5781C53.0904 66.8594 53.1685 67.196 53.1685 67.5881C53.1685 68.0824 53.0407 68.5213 52.785 68.9048C52.5321 69.2884 52.1642 69.5909 51.6813 69.8125C51.2012 70.0341 50.6202 70.1449 49.9384 70.1449C49.285 70.1449 48.7196 70.0412 48.2424 69.8338C47.7651 69.6264 47.3915 69.3324 47.1216 68.9517C46.8517 68.5682 46.7026 68.1136 46.6742 67.5881H47.9952C48.0208 67.9034 48.123 68.1662 48.302 68.3764C48.4838 68.5838 48.7154 68.7386 48.9966 68.8409C49.2807 68.9403 49.5918 68.9901 49.9299 68.9901C50.302 68.9901 50.633 68.9318 50.9228 68.8153C51.2154 68.696 51.4455 68.5312 51.6131 68.321C51.7807 68.108 51.8645 67.8594 51.8645 67.5753C51.8645 67.3168 51.7907 67.1051 51.6429 66.9403C51.498 66.7756 51.3006 66.6392 51.0506 66.5312C50.8034 66.4233 50.5236 66.3281 50.2111 66.2457L49.1799 65.9645C48.481 65.7741 47.927 65.4943 47.5179 65.125C47.1117 64.7557 46.9086 64.267 46.9086 63.6591C46.9086 63.1562 47.0449 62.7173 47.3176 62.3423C47.5904 61.9673 47.9597 61.6761 48.4256 61.4688C48.8915 61.2585 49.4171 61.1534 50.0023 61.1534C50.5932 61.1534 51.1145 61.2571 51.5662 61.4645C52.0208 61.6719 52.3787 61.9574 52.6401 62.321C52.9015 62.6818 53.0378 63.0966 53.0492 63.5653H51.7793ZM57.4608 70.1321C56.8159 70.1321 56.2605 69.9943 55.7946 69.7188C55.3315 69.4403 54.9735 69.0497 54.7207 68.5469C54.4707 68.0412 54.3457 67.4489 54.3457 66.7699C54.3457 66.0994 54.4707 65.5085 54.7207 64.9972C54.9735 64.4858 55.3258 64.0866 55.7775 63.7997C56.2321 63.5128 56.7633 63.3693 57.3713 63.3693C57.7406 63.3693 58.0985 63.4304 58.4451 63.5526C58.7917 63.6747 59.1028 63.8665 59.3784 64.1278C59.6539 64.3892 59.8713 64.7287 60.0304 65.1463C60.1895 65.5611 60.269 66.0653 60.269 66.6591V67.1108H55.0659V66.1562H59.0204C59.0204 65.821 58.9522 65.5241 58.8159 65.2656C58.6795 65.0043 58.4877 64.7983 58.2406 64.6477C57.9963 64.4972 57.7093 64.4219 57.3798 64.4219C57.0218 64.4219 56.7093 64.5099 56.4423 64.6861C56.1781 64.8594 55.9735 65.0866 55.8287 65.3679C55.6866 65.6463 55.6156 65.9489 55.6156 66.2756V67.0213C55.6156 67.4588 55.6923 67.831 55.8457 68.1378C56.002 68.4446 56.2193 68.679 56.4977 68.8409C56.7761 69 57.1014 69.0795 57.4735 69.0795C57.715 69.0795 57.9352 69.0455 58.1341 68.9773C58.3329 68.9062 58.5048 68.8011 58.6497 68.6619C58.7946 68.5227 58.9054 68.3509 58.9821 68.1463L60.188 68.3636C60.0914 68.7187 59.9181 69.0298 59.6681 69.2969C59.421 69.5611 59.1099 69.767 58.7349 69.9148C58.3627 70.0597 57.938 70.1321 57.4608 70.1321ZM63.5875 70.1449C63.1728 70.1449 62.7978 70.0682 62.4625 69.9148C62.1273 69.7585 61.8617 69.5327 61.6657 69.2372C61.4725 68.9418 61.3759 68.5795 61.3759 68.1506C61.3759 67.7812 61.4469 67.4773 61.589 67.2386C61.731 67 61.9228 66.8111 62.1642 66.6719C62.4057 66.5327 62.6756 66.4276 62.9739 66.3565C63.2722 66.2855 63.5762 66.2315 63.8858 66.1946C64.2779 66.1491 64.5961 66.1122 64.8404 66.0838C65.0847 66.0526 65.2623 66.0028 65.373 65.9347C65.4838 65.8665 65.5392 65.7557 65.5392 65.6023V65.5724C65.5392 65.2003 65.4341 64.9119 65.2239 64.7074C65.0165 64.5028 64.7069 64.4006 64.2949 64.4006C63.8659 64.4006 63.5279 64.4957 63.2807 64.6861C63.0364 64.8736 62.8674 65.0824 62.7736 65.3125L61.5762 65.0398C61.7182 64.642 61.9256 64.321 62.1983 64.0767C62.4739 63.8295 62.7907 63.6506 63.1486 63.5398C63.5066 63.4261 63.883 63.3693 64.2779 63.3693C64.5392 63.3693 64.8162 63.4006 65.1088 63.4631C65.4043 63.5227 65.6799 63.6335 65.9355 63.7955C66.1941 63.9574 66.4057 64.1889 66.5705 64.4901C66.7353 64.7884 66.8176 65.1761 66.8176 65.6534V70H65.5733V69.1051H65.5222C65.4398 69.2699 65.3162 69.4318 65.1515 69.5909C64.9867 69.75 64.775 69.8821 64.5165 69.9872C64.258 70.0923 63.9483 70.1449 63.5875 70.1449ZM63.8645 69.1222C64.2168 69.1222 64.5179 69.0526 64.7679 68.9134C65.0208 68.7741 65.2125 68.5923 65.3432 68.3679C65.4767 68.1406 65.5435 67.8977 65.5435 67.6392V66.7955C65.498 66.8409 65.41 66.8835 65.2793 66.9233C65.1515 66.9602 65.0051 66.9929 64.8404 67.0213C64.6756 67.0469 64.5151 67.071 64.3588 67.0938C64.2026 67.1136 64.0719 67.1307 63.9668 67.1449C63.7196 67.1761 63.4938 67.2287 63.2892 67.3026C63.0875 67.3764 62.9256 67.483 62.8034 67.6222C62.6841 67.7585 62.6245 67.9403 62.6245 68.1676C62.6245 68.483 62.7409 68.7216 62.9739 68.8835C63.2069 69.0426 63.5037 69.1222 63.8645 69.1222ZM68.5147 70V63.4545H69.7463V64.4943H69.8145C69.9338 64.142 70.144 63.8651 70.4451 63.6634C70.7491 63.4588 71.0929 63.3565 71.4764 63.3565C71.5559 63.3565 71.6497 63.3594 71.7576 63.3651C71.8684 63.3707 71.9551 63.3778 72.0176 63.3864V64.6051C71.9664 64.5909 71.8755 64.5753 71.7449 64.5582C71.6142 64.5384 71.4835 64.5284 71.3528 64.5284C71.0517 64.5284 70.7832 64.5923 70.5474 64.7202C70.3145 64.8452 70.1298 65.0199 69.9934 65.2443C69.8571 65.4659 69.7889 65.7187 69.7889 66.0028V70H68.5147ZM75.6429 70.1321C75.0094 70.1321 74.464 69.9886 74.0066 69.7017C73.552 69.4119 73.2026 69.0128 72.9583 68.5043C72.714 67.9957 72.5918 67.4134 72.5918 66.7571C72.5918 66.0923 72.7168 65.5057 72.9668 64.9972C73.2168 64.4858 73.5691 64.0866 74.0236 63.7997C74.4782 63.5128 75.0137 63.3693 75.6301 63.3693C76.1273 63.3693 76.5705 63.4616 76.9597 63.6463C77.3489 63.8281 77.6628 64.0838 77.9015 64.4134C78.1429 64.7429 78.2864 65.1278 78.3319 65.5682H77.0918C77.0236 65.2614 76.8674 64.9972 76.623 64.7756C76.3816 64.554 76.0577 64.4432 75.6515 64.4432C75.2963 64.4432 74.9853 64.5369 74.7182 64.7244C74.454 64.9091 74.248 65.1733 74.1003 65.517C73.9526 65.858 73.8787 66.2614 73.8787 66.7273C73.8787 67.2045 73.9512 67.6165 74.0961 67.9631C74.2409 68.3097 74.4455 68.5781 74.7097 68.7685C74.9767 68.9588 75.2907 69.054 75.6515 69.054C75.8929 69.054 76.1117 69.0099 76.3077 68.9219C76.5066 68.831 76.6728 68.7017 76.8063 68.5341C76.9426 68.3665 77.0378 68.1648 77.0918 67.929H78.3319C78.2864 68.3523 78.1486 68.7301 77.9185 69.0625C77.6884 69.3949 77.3801 69.6562 76.9938 69.8466C76.6103 70.0369 76.16 70.1321 75.6429 70.1321ZM80.9686 66.1136V70H79.6944V61.2727H80.9515V64.5199H81.0325C81.1859 64.1676 81.4203 63.8878 81.7356 63.6804C82.051 63.473 82.4629 63.3693 82.9714 63.3693C83.4203 63.3693 83.8123 63.4616 84.1475 63.6463C84.4856 63.831 84.747 64.1065 84.9316 64.473C85.1191 64.8366 85.2129 65.2912 85.2129 65.8366V70H83.9387V65.9901C83.9387 65.5099 83.8152 65.1378 83.568 64.8736C83.3208 64.6065 82.9771 64.473 82.5368 64.473C82.2356 64.473 81.9657 64.5369 81.7271 64.6648C81.4913 64.7926 81.3052 64.9801 81.1689 65.2273C81.0353 65.4716 80.9686 65.767 80.9686 66.1136ZM97.4398 64.1108H96.1103C96.0591 63.8267 95.964 63.5767 95.8248 63.3608C95.6855 63.1449 95.5151 62.9616 95.3134 62.8111C95.1117 62.6605 94.8858 62.5469 94.6358 62.4702C94.3887 62.3935 94.1259 62.3551 93.8475 62.3551C93.3446 62.3551 92.8944 62.4815 92.4966 62.7344C92.1017 62.9872 91.7892 63.358 91.5591 63.8466C91.3319 64.3352 91.2182 64.9318 91.2182 65.6364C91.2182 66.3466 91.3319 66.946 91.5591 67.4347C91.7892 67.9233 92.1032 68.2926 92.5009 68.5426C92.8986 68.7926 93.3461 68.9176 93.8432 68.9176C94.1188 68.9176 94.3801 68.8807 94.6273 68.8068C94.8773 68.7301 95.1032 68.6179 95.3049 68.4702C95.5066 68.3224 95.677 68.142 95.8162 67.929C95.9583 67.7131 96.0563 67.4659 96.1103 67.1875L97.4398 67.1918C97.3688 67.6207 97.231 68.0156 97.0265 68.3764C96.8248 68.7344 96.5648 69.044 96.2466 69.3054C95.9313 69.5639 95.5705 69.7642 95.1642 69.9062C94.758 70.0483 94.3148 70.1193 93.8347 70.1193C93.079 70.1193 92.4057 69.9403 91.8148 69.5824C91.2239 69.2216 90.758 68.706 90.4171 68.0355C90.079 67.3651 89.91 66.5653 89.91 65.6364C89.91 64.7045 90.0804 63.9048 90.4213 63.2372C90.7623 62.5668 91.2282 62.0526 91.8191 61.6946C92.41 61.3338 93.0819 61.1534 93.8347 61.1534C94.2978 61.1534 94.7296 61.2202 95.1301 61.3537C95.5336 61.4844 95.8958 61.6776 96.2168 61.9332C96.5378 62.1861 96.8034 62.4957 97.0137 62.8622C97.2239 63.2259 97.3659 63.642 97.4398 64.1108ZM100.187 61.2727V70H98.9132V61.2727H100.187ZM101.901 70V63.4545H103.176V70H101.901ZM102.545 62.4446C102.323 62.4446 102.133 62.3707 101.974 62.223C101.818 62.0724 101.74 61.8935 101.74 61.6861C101.74 61.4759 101.818 61.2969 101.974 61.1491C102.133 60.9986 102.323 60.9233 102.545 60.9233C102.767 60.9233 102.955 60.9986 103.112 61.1491C103.271 61.2969 103.35 61.4759 103.35 61.6861C103.35 61.8935 103.271 62.0724 103.112 62.223C102.955 62.3707 102.767 62.4446 102.545 62.4446ZM107.711 70.1321C107.066 70.1321 106.51 69.9943 106.045 69.7188C105.581 69.4403 105.224 69.0497 104.971 68.5469C104.721 68.0412 104.596 67.4489 104.596 66.7699C104.596 66.0994 104.721 65.5085 104.971 64.9972C105.224 64.4858 105.576 64.0866 106.028 63.7997C106.482 63.5128 107.013 63.3693 107.621 63.3693C107.991 63.3693 108.349 63.4304 108.695 63.5526C109.042 63.6747 109.353 63.8665 109.628 64.1278C109.904 64.3892 110.121 64.7287 110.28 65.1463C110.439 65.5611 110.519 66.0653 110.519 66.6591V67.1108H105.316V66.1562H109.27C109.27 65.821 109.202 65.5241 109.066 65.2656C108.93 65.0043 108.738 64.7983 108.491 64.6477C108.246 64.4972 107.959 64.4219 107.63 64.4219C107.272 64.4219 106.959 64.5099 106.692 64.6861C106.428 64.8594 106.224 65.0866 106.079 65.3679C105.937 65.6463 105.866 65.9489 105.866 66.2756V67.0213C105.866 67.4588 105.942 67.831 106.096 68.1378C106.252 68.4446 106.469 68.679 106.748 68.8409C107.026 69 107.351 69.0795 107.724 69.0795C107.965 69.0795 108.185 69.0455 108.384 68.9773C108.583 68.9062 108.755 68.8011 108.9 68.6619C109.045 68.5227 109.155 68.3509 109.232 68.1463L110.438 68.3636C110.341 68.7187 110.168 69.0298 109.918 69.2969C109.671 69.5611 109.36 69.767 108.985 69.9148C108.613 70.0597 108.188 70.1321 107.711 70.1321ZM113.207 66.1136V70H111.933V63.4545H113.156V64.5199H113.237C113.387 64.1733 113.623 63.8949 113.944 63.6847C114.268 63.4744 114.676 63.3693 115.167 63.3693C115.613 63.3693 116.004 63.4631 116.339 63.6506C116.674 63.8352 116.934 64.1108 117.119 64.4773C117.303 64.8437 117.396 65.2969 117.396 65.8366V70H116.122V65.9901C116.122 65.5156 115.998 65.1449 115.751 64.8778C115.504 64.608 115.164 64.473 114.732 64.473C114.437 64.473 114.174 64.5369 113.944 64.6648C113.717 64.7926 113.536 64.9801 113.403 65.2273C113.272 65.4716 113.207 65.767 113.207 66.1136ZM122.16 63.4545V64.4773H118.585V63.4545H122.16ZM119.544 61.8864H120.818V68.0781C120.818 68.3253 120.855 68.5114 120.928 68.6364C121.002 68.7585 121.097 68.8423 121.214 68.8878C121.333 68.9304 121.463 68.9517 121.602 68.9517C121.704 68.9517 121.794 68.9446 121.87 68.9304C121.947 68.9162 122.007 68.9048 122.049 68.8963L122.279 69.9489C122.205 69.9773 122.1 70.0057 121.964 70.0341C121.828 70.0653 121.657 70.0824 121.453 70.0852C121.117 70.0909 120.805 70.0312 120.515 69.9062C120.225 69.7812 119.991 69.5881 119.812 69.3267C119.633 69.0653 119.544 68.7372 119.544 68.3423V61.8864ZM126.847 70V61.2727H129.958C130.634 61.2727 131.195 61.3892 131.642 61.6222C132.09 61.8551 132.426 62.1776 132.647 62.5895C132.869 62.9986 132.98 63.4716 132.98 64.0085C132.98 64.5426 132.867 65.0128 132.643 65.419C132.421 65.8224 132.086 66.1364 131.637 66.3608C131.191 66.5852 130.63 66.6974 129.954 66.6974H127.597V65.5639H129.835C130.261 65.5639 130.607 65.5028 130.874 65.3807C131.144 65.2585 131.342 65.081 131.467 64.848C131.592 64.6151 131.654 64.3352 131.654 64.0085C131.654 63.679 131.59 63.3935 131.463 63.152C131.338 62.9105 131.14 62.7259 130.87 62.598C130.603 62.4673 130.252 62.402 129.818 62.402H128.164V70H126.847ZM131.156 66.0625L133.312 70H131.812L129.698 66.0625H131.156ZM137.219 70.1321C136.574 70.1321 136.018 69.9943 135.552 69.7188C135.089 69.4403 134.731 69.0497 134.479 68.5469C134.229 68.0412 134.104 67.4489 134.104 66.7699C134.104 66.0994 134.229 65.5085 134.479 64.9972C134.731 64.4858 135.084 64.0866 135.535 63.7997C135.99 63.5128 136.521 63.3693 137.129 63.3693C137.498 63.3693 137.856 63.4304 138.203 63.5526C138.55 63.6747 138.861 63.8665 139.136 64.1278C139.412 64.3892 139.629 64.7287 139.788 65.1463C139.947 65.5611 140.027 66.0653 140.027 66.6591V67.1108H134.824V66.1562H138.778C138.778 65.821 138.71 65.5241 138.574 65.2656C138.437 65.0043 138.246 64.7983 137.998 64.6477C137.754 64.4972 137.467 64.4219 137.138 64.4219C136.78 64.4219 136.467 64.5099 136.2 64.6861C135.936 64.8594 135.731 65.0866 135.586 65.3679C135.444 65.6463 135.373 65.9489 135.373 66.2756V67.0213C135.373 67.4588 135.45 67.831 135.604 68.1378C135.76 68.4446 135.977 68.679 136.256 68.8409C136.534 69 136.859 69.0795 137.231 69.0795C137.473 69.0795 137.693 69.0455 137.892 68.9773C138.091 68.9062 138.263 68.8011 138.407 68.6619C138.552 68.5227 138.663 68.3509 138.74 68.1463L139.946 68.3636C139.849 68.7187 139.676 69.0298 139.426 69.2969C139.179 69.5611 138.868 69.767 138.493 69.9148C138.121 70.0597 137.696 70.1321 137.219 70.1321ZM144.198 70.1321C143.564 70.1321 143.019 69.9886 142.561 69.7017C142.107 69.4119 141.757 69.0128 141.513 68.5043C141.269 67.9957 141.146 67.4134 141.146 66.7571C141.146 66.0923 141.271 65.5057 141.521 64.9972C141.771 64.4858 142.124 64.0866 142.578 63.7997C143.033 63.5128 143.568 63.3693 144.185 63.3693C144.682 63.3693 145.125 63.4616 145.514 63.6463C145.904 63.8281 146.218 64.0838 146.456 64.4134C146.698 64.7429 146.841 65.1278 146.887 65.5682H145.646C145.578 65.2614 145.422 64.9972 145.178 64.7756C144.936 64.554 144.612 64.4432 144.206 64.4432C143.851 64.4432 143.54 64.5369 143.273 64.7244C143.009 64.9091 142.803 65.1733 142.655 65.517C142.507 65.858 142.433 66.2614 142.433 66.7273C142.433 67.2045 142.506 67.6165 142.651 67.9631C142.796 68.3097 143 68.5781 143.264 68.7685C143.531 68.9588 143.845 69.054 144.206 69.054C144.448 69.054 144.666 69.0099 144.862 68.9219C145.061 68.831 145.227 68.7017 145.361 68.5341C145.497 68.3665 145.593 68.1648 145.646 67.929H146.887C146.841 68.3523 146.703 68.7301 146.473 69.0625C146.243 69.3949 145.935 69.6562 145.548 69.8466C145.165 70.0369 144.715 70.1321 144.198 70.1321ZM151.006 70.1321C150.393 70.1321 149.857 69.9915 149.4 69.7102C148.942 69.429 148.587 69.0355 148.334 68.5298C148.081 68.0241 147.955 67.4332 147.955 66.7571C147.955 66.0781 148.081 65.4844 148.334 64.9759C148.587 64.4673 148.942 64.0724 149.4 63.7912C149.857 63.5099 150.393 63.3693 151.006 63.3693C151.62 63.3693 152.155 63.5099 152.613 63.7912C153.07 64.0724 153.425 64.4673 153.678 64.9759C153.931 65.4844 154.057 66.0781 154.057 66.7571C154.057 67.4332 153.931 68.0241 153.678 68.5298C153.425 69.0355 153.07 69.429 152.613 69.7102C152.155 69.9915 151.62 70.1321 151.006 70.1321ZM151.01 69.0625C151.408 69.0625 151.738 68.9574 151.999 68.7472C152.26 68.5369 152.454 68.2571 152.579 67.9077C152.706 67.5582 152.77 67.1733 152.77 66.7528C152.77 66.3352 152.706 65.9517 152.579 65.6023C152.454 65.25 152.26 64.9673 151.999 64.7543C151.738 64.5412 151.408 64.4347 151.01 64.4347C150.61 64.4347 150.278 64.5412 150.013 64.7543C149.752 64.9673 149.557 65.25 149.43 65.6023C149.305 65.9517 149.242 66.3352 149.242 66.7528C149.242 67.1733 149.305 67.5582 149.43 67.9077C149.557 68.2571 149.752 68.5369 150.013 68.7472C150.278 68.9574 150.61 69.0625 151.01 69.0625ZM155.48 70V63.4545H156.711V64.4943H156.779C156.899 64.142 157.109 63.8651 157.41 63.6634C157.714 63.4588 158.058 63.3565 158.441 63.3565C158.521 63.3565 158.615 63.3594 158.722 63.3651C158.833 63.3707 158.92 63.3778 158.982 63.3864V64.6051C158.931 64.5909 158.84 64.5753 158.71 64.5582C158.579 64.5384 158.448 64.5284 158.318 64.5284C158.017 64.5284 157.748 64.5923 157.512 64.7202C157.279 64.8452 157.095 65.0199 156.958 65.2443C156.822 65.4659 156.754 65.7187 156.754 66.0028V70H155.48ZM162.301 70.1278C161.773 70.1278 161.301 69.9929 160.886 69.723C160.474 69.4503 160.15 69.0625 159.915 68.5597C159.682 68.054 159.565 67.4474 159.565 66.7401C159.565 66.0327 159.683 65.4276 159.919 64.9247C160.157 64.4219 160.484 64.0369 160.899 63.7699C161.314 63.5028 161.784 63.3693 162.309 63.3693C162.716 63.3693 163.042 63.4375 163.29 63.5739C163.54 63.7074 163.733 63.8636 163.869 64.0426C164.008 64.2216 164.116 64.3793 164.193 64.5156H164.27V61.2727H165.544V70H164.3V68.9815H164.193C164.116 69.1207 164.006 69.2798 163.861 69.4588C163.719 69.6378 163.523 69.794 163.273 69.9276C163.023 70.0611 162.699 70.1278 162.301 70.1278ZM162.582 69.0412C162.949 69.0412 163.258 68.9446 163.511 68.7514C163.767 68.5554 163.96 68.2841 164.091 67.9375C164.224 67.5909 164.291 67.1875 164.291 66.7273C164.291 66.2727 164.226 65.875 164.095 65.5341C163.964 65.1932 163.773 64.9276 163.52 64.7372C163.267 64.5469 162.954 64.4517 162.582 64.4517C162.199 64.4517 161.879 64.5511 161.623 64.75C161.368 64.9489 161.175 65.2202 161.044 65.5639C160.916 65.9077 160.852 66.2955 160.852 66.7273C160.852 67.1648 160.917 67.5582 161.048 67.9077C161.179 68.2571 161.372 68.5341 161.628 68.7386C161.886 68.9403 162.204 69.0412 162.582 69.0412ZM172.267 65.0526L171.112 65.2571C171.064 65.1094 170.987 64.9687 170.882 64.8352C170.78 64.7017 170.641 64.5923 170.465 64.5071C170.289 64.4219 170.068 64.3793 169.804 64.3793C169.443 64.3793 169.142 64.4602 168.901 64.6222C168.659 64.7812 168.539 64.9872 168.539 65.2401C168.539 65.4588 168.619 65.6349 168.781 65.7685C168.943 65.902 169.205 66.0114 169.566 66.0966L170.605 66.3352C171.208 66.4744 171.656 66.6889 171.952 66.9787C172.247 67.2685 172.395 67.6449 172.395 68.108C172.395 68.5 172.281 68.8494 172.054 69.1562C171.83 69.4602 171.516 69.6989 171.112 69.8722C170.712 70.0455 170.247 70.1321 169.719 70.1321C168.986 70.1321 168.388 69.9759 167.925 69.6634C167.462 69.348 167.178 68.9006 167.073 68.321L168.304 68.1335C168.381 68.4545 168.539 68.6974 168.777 68.8622C169.016 69.0241 169.327 69.1051 169.71 69.1051C170.128 69.1051 170.462 69.0185 170.712 68.8452C170.962 68.669 171.087 68.4545 171.087 68.2017C171.087 67.9972 171.01 67.8253 170.857 67.6861C170.706 67.5469 170.475 67.4418 170.162 67.3707L169.054 67.1278C168.443 66.9886 167.992 66.767 167.699 66.4631C167.409 66.1591 167.264 65.7741 167.264 65.3082C167.264 64.9219 167.372 64.5838 167.588 64.294C167.804 64.0043 168.102 63.7784 168.483 63.6165C168.864 63.4517 169.3 63.3693 169.791 63.3693C170.499 63.3693 171.056 63.5227 171.462 63.8295C171.868 64.1335 172.137 64.5412 172.267 65.0526Z" fill="white"/>
<defs>
<radialGradient id="paint0_radial_1395_2521" cx="0" cy="0" r="1" gradientUnits="userSpaceOnUse" gradientTransform="translate(109.75 44.75) rotate(31.6148) scale(128.289 576.976)">
<stop offset="0.201923" stop-color="#215AC8"/>
<stop offset="0.706631" stop-color="#2F6DE4"/>
<stop offset="0.706731" stop-color="#3D80FF"/>
</radialGradient>
<clipPath id="clip0_1395_2521">
<rect width="24" height="24" fill="white" transform="translate(54 26)"/>
</clipPath>
</defs>
</svg>
