<svg width="19" height="20" viewBox="0 0 19 20" fill="none" xmlns="http://www.w3.org/2000/svg">
<path d="M8.5 17.425V10.575L2.5 7.1V13.95L8.5 17.425ZM10.5 17.425L16.5 13.95V7.1L10.5 10.575V17.425ZM8.5 19.725L1.5 15.7C1.18333 15.5167 0.9375 15.275 0.7625 14.975C0.5875 14.675 0.5 14.3417 0.5 13.975V6.025C0.5 5.65833 0.5875 5.325 0.7625 5.025C0.9375 4.725 1.18333 4.48333 1.5 4.3L8.5 0.275C8.81667 0.0916667 9.15 0 9.5 0C9.85 0 10.1833 0.0916667 10.5 0.275L17.5 4.3C17.8167 4.48333 18.0625 4.725 18.2375 5.025C18.4125 5.325 18.5 5.65833 18.5 6.025V13.975C18.5 14.3417 18.4125 14.675 18.2375 14.975C18.0625 15.275 17.8167 15.5167 17.5 15.7L10.5 19.725C10.1833 19.9083 9.85 20 9.5 20C9.15 20 8.81667 19.9083 8.5 19.725ZM13.5 6.525L15.425 5.425L9.5 2L7.55 3.125L13.5 6.525ZM9.5 8.85L11.45 7.725L5.525 4.3L3.575 5.425L9.5 8.85Z" fill="white"/>
</svg>
