<svg width="40" height="40" viewBox="0 0 40 40" fill="none" xmlns="http://www.w3.org/2000/svg">
<rect x="0.5" y="0.5" width="39" height="39" rx="19.5" stroke="#FFA500"/>
<g clip-path="url(#clip0_3103_6763)">
<path d="M27 11H13C11.9 11 11 11.9 11 13V27C11 28.1 11.9 29 13 29H27C28.1 29 29 28.1 29 27V13C29 11.9 28.1 11 27 11ZM27 27H25.27L27 25.27V27ZM27 24H26.15L23.15 27H21.53L24.53 24H22.41L19.41 27H17.8L20.8 24H18.68L15.68 27H13.84L16.84 24H14.72L13 25.72V13H27V24Z" fill="#FFA500"/>
<path d="M18.67 19L20.67 21L25.75 15.91L24.34 14.5L20.67 18.17L18.67 16.17L14.25 20.59L15.66 22L18.67 19Z" fill="#FFA500"/>
</g>
<defs>
<clipPath id="clip0_3103_6763">
<rect width="24" height="24" fill="white" transform="translate(8 8)"/>
</clipPath>
</defs>
</svg>
