<svg width="60" height="67" viewBox="0 0 60 67" fill="none" xmlns="http://www.w3.org/2000/svg">
<path d="M26.6667 58.2513V35.418L6.66667 23.8346V46.668L26.6667 58.2513ZM33.3333 58.2513L53.3333 46.668V23.8346L33.3333 35.418V58.2513ZM26.6667 65.918L3.33333 52.5013C2.27778 51.8902 1.45833 51.0846 0.875 50.0846C0.291667 49.0846 0 47.9735 0 46.7513V20.2513C0 19.0291 0.291667 17.918 0.875 16.918C1.45833 15.918 2.27778 15.1124 3.33333 14.5013L26.6667 1.08464C27.7222 0.473524 28.8333 0.167969 30 0.167969C31.1667 0.167969 32.2778 0.473524 33.3333 1.08464L56.6667 14.5013C57.7222 15.1124 58.5417 15.918 59.125 16.918C59.7083 17.918 60 19.0291 60 20.2513V46.7513C60 47.9735 59.7083 49.0846 59.125 50.0846C58.5417 51.0846 57.7222 51.8902 56.6667 52.5013L33.3333 65.918C32.2778 66.5291 31.1667 66.8346 30 66.8346C28.8333 66.8346 27.7222 66.5291 26.6667 65.918ZM43.3333 21.918L49.75 18.2513L30 6.83464L23.5 10.5846L43.3333 21.918ZM30 29.668L36.5 25.918L16.75 14.5013L10.25 18.2513L30 29.668Z" fill="#7D7D7D"/>
</svg>
