<svg width="24" height="24" viewBox="0 0 24 24" fill="none" xmlns="http://www.w3.org/2000/svg">
<path d="M12 22C9.68333 21.4167 7.77083 20.0875 6.2625 18.0125C4.75417 15.9375 4 13.6333 4 11.1V5L12 2L20 5V11.1C20 11.2667 19.9958 11.4333 19.9875 11.6C19.9792 11.7667 19.9667 11.9333 19.95 12.1C19.8 12.0667 19.6458 12.0417 19.4875 12.025C19.3292 12.0083 19.1667 12 19 12C18.8167 12 18.6417 12.0083 18.475 12.025C18.3083 12.0417 18.1333 12.0667 17.95 12.1C17.9667 11.9333 17.9792 11.7708 17.9875 11.6125C17.9958 11.4542 18 11.2833 18 11.1V6.375L12 4.125L6 6.375V11.1C6 13.1167 6.56667 14.95 7.7 16.6C8.83333 18.25 10.2667 19.35 12 19.9C12.35 19.7833 12.6917 19.6417 13.025 19.475C13.3583 19.3083 13.6833 19.1167 14 18.9V21.25C13.6833 21.4167 13.3583 21.5625 13.025 21.6875C12.6917 21.8125 12.35 21.9167 12 22ZM16.85 22C16.6167 22 16.4167 21.9167 16.25 21.75C16.0833 21.5833 16 21.3833 16 21.15V17.85C16 17.6167 16.0833 17.4167 16.25 17.25C16.4167 17.0833 16.6167 17 16.85 17H17V16C17 15.45 17.1958 14.9792 17.5875 14.5875C17.9792 14.1958 18.45 14 19 14C19.55 14 20.0208 14.1958 20.4125 14.5875C20.8042 14.9792 21 15.45 21 16V17H21.15C21.3833 17 21.5833 17.0833 21.75 17.25C21.9167 17.4167 22 17.6167 22 17.85V21.15C22 21.3833 21.9167 21.5833 21.75 21.75C21.5833 21.9167 21.3833 22 21.15 22H16.85ZM18 17H20V16C20 15.7167 19.9042 15.4792 19.7125 15.2875C19.5208 15.0958 19.2833 15 19 15C18.7167 15 18.4792 15.0958 18.2875 15.2875C18.0958 15.4792 18 15.7167 18 16V17Z" fill="#2ECC71"/>
</svg>
