<svg width="40" height="40" viewBox="0 0 40 40" fill="none" xmlns="http://www.w3.org/2000/svg">
<rect x="0.5" y="0.5" width="39" height="39" rx="19.5" stroke="#2ECC71"/>
<path d="M18 14H22V12H18V14ZM12 29C11.45 29 10.9792 28.8042 10.5875 28.4125C10.1958 28.0208 10 27.55 10 27V16C10 15.45 10.1958 14.9792 10.5875 14.5875C10.9792 14.1958 11.45 14 12 14H16V12C16 11.45 16.1958 10.9792 16.5875 10.5875C16.9792 10.1958 17.45 10 18 10H22C22.55 10 23.0208 10.1958 23.4125 10.5875C23.8042 10.9792 24 11.45 24 12V14H28C28.55 14 29.0208 14.1958 29.4125 14.5875C29.8042 14.9792 30 15.45 30 16V20.275C29.7 20.0583 29.3833 19.8708 29.05 19.7125C28.7167 19.5542 28.3667 19.4167 28 19.3V16H12V27H19.075C19.125 27.35 19.2 27.6917 19.3 28.025C19.4 28.3583 19.525 28.6833 19.675 29H12ZM26 29L29 26L28.3 25.3L26.5 27.1V23H25.5V27.1L23.7 25.3L23 26L26 29ZM26 31C24.6167 31 23.4375 30.5125 22.4625 29.5375C21.4875 28.5625 21 27.3833 21 26C21 24.6167 21.4875 23.4375 22.4625 22.4625C23.4375 21.4875 24.6167 21 26 21C27.3833 21 28.5625 21.4875 29.5375 22.4625C30.5125 23.4375 31 24.6167 31 26C31 27.3833 30.5125 28.5625 29.5375 29.5375C28.5625 30.5125 27.3833 31 26 31Z" fill="#2ECC71"/>
</svg>
